<svg width="1154" height="632" viewBox="0 0 1154 632" fill="none" xmlns="http://www.w3.org/2000/svg">
<path d="M1153 65H1V631H1153V65Z" fill="#EBF2E8" stroke="black" stroke-width="0.601156" stroke-linecap="round" stroke-linejoin="round"/>
<path d="M385 65H1V631H385V65Z" fill="#F5F9F4" stroke="black" stroke-width="0.601156" stroke-linecap="round" stroke-linejoin="round"/>
<path d="M1153 65H769V631H1153V65Z" fill="#E1EBDC" stroke="black" stroke-width="0.601156" stroke-linecap="round" stroke-linejoin="round"/>
<rect x="1" y="1" width="1152" height="64" fill="white" stroke="black"/>
<path d="M75 33.52L77.48 34.02C77.32 35.5933 76.7467 36.8667 75.76 37.84C74.7733 38.8133 73.5 39.3 71.94 39.3C70.1667 39.3 68.7133 38.68 67.58 37.44C66.46 36.2 65.9 34.3467 65.9 31.88C65.9 29.5867 66.4867 27.82 67.66 26.58C68.8467 25.3267 70.2667 24.7 71.92 24.7C73.3733 24.7 74.6 25.16 75.6 26.08C76.6 26.9867 77.1867 28.1867 77.36 29.68L74.92 30.06C74.5733 27.94 73.58 26.88 71.94 26.88C70.9133 26.88 70.0533 27.2933 69.36 28.12C68.68 28.9467 68.34 30.2133 68.34 31.92C68.34 33.6667 68.6733 34.9733 69.34 35.84C70.02 36.6933 70.8867 37.12 71.94 37.12C73.6867 37.12 74.7067 35.92 75 33.52ZM79.7813 39V28.4H81.9413V29.52H81.9813C82.1946 29.12 82.5013 28.8 82.9013 28.56C83.3013 28.32 83.7279 28.2 84.1813 28.2C84.4879 28.2 84.8013 28.2667 85.1213 28.4L84.7613 30.62C84.3746 30.5133 84.0946 30.46 83.9213 30.46C82.6813 30.46 82.0613 31.34 82.0613 33.1V39H79.7813ZM87.8473 43.5L89.8473 38.52L85.7273 28.4H88.1273L90.9073 35.7H90.9473L93.7273 28.4H96.0873L90.0473 43.5H87.8473ZM100.069 32.46V35.02C100.069 35.6333 100.296 36.16 100.749 36.6C101.202 37.0267 101.789 37.24 102.509 37.24C103.376 37.24 104.062 36.9333 104.569 36.32C105.076 35.7067 105.329 34.8333 105.329 33.7C105.329 32.5667 105.069 31.6933 104.549 31.08C104.042 30.4667 103.362 30.16 102.509 30.16C101.776 30.16 101.182 30.3867 100.729 30.84C100.289 31.2933 100.069 31.8333 100.069 32.46ZM97.7891 43.5V28.4H99.9691V29.42H100.009C100.689 28.54 101.662 28.1 102.929 28.1C104.209 28.1 105.309 28.6067 106.229 29.62C107.149 30.6333 107.609 31.9933 107.609 33.7C107.609 35.42 107.162 36.7867 106.269 37.8C105.389 38.8 104.282 39.3 102.949 39.3C101.736 39.3 100.789 38.86 100.109 37.98H100.069V43.5H97.7891ZM110.418 35.46V30.36H108.818V28.4H110.478V25.8H112.638V28.4H115.298V30.36H112.658V35.22C112.658 35.8067 112.745 36.22 112.918 36.46C113.105 36.6867 113.478 36.8 114.038 36.8H114.878V39H113.858C112.578 39 111.685 38.72 111.178 38.16C110.671 37.5867 110.418 36.6867 110.418 35.46ZM121.325 37.24C122.112 37.24 122.745 36.9333 123.225 36.32C123.719 35.6933 123.965 34.82 123.965 33.7C123.965 32.58 123.719 31.7133 123.225 31.1C122.745 30.4733 122.112 30.16 121.325 30.16C120.525 30.16 119.879 30.4667 119.385 31.08C118.905 31.6933 118.665 32.5667 118.665 33.7C118.665 34.8467 118.905 35.7267 119.385 36.34C119.879 36.94 120.525 37.24 121.325 37.24ZM124.825 37.82C123.919 38.8067 122.752 39.3 121.325 39.3C119.899 39.3 118.719 38.8067 117.785 37.82C116.865 36.8333 116.405 35.46 116.405 33.7C116.405 31.9667 116.879 30.6 117.825 29.6C118.785 28.6 119.952 28.1 121.325 28.1C122.699 28.1 123.852 28.6 124.785 29.6C125.732 30.6 126.205 31.9667 126.205 33.7C126.205 35.46 125.745 36.8333 124.825 37.82ZM134.952 34.78L137.212 35.26C136.998 36.54 136.512 37.5333 135.752 38.24C134.992 38.9467 133.985 39.3 132.732 39.3C131.292 39.3 130.112 38.8067 129.192 37.82C128.272 36.8333 127.812 35.46 127.812 33.7C127.812 32.0067 128.272 30.6533 129.192 29.64C130.125 28.6133 131.298 28.1 132.712 28.1C133.925 28.1 134.925 28.4667 135.712 29.2C136.498 29.92 136.958 30.86 137.092 32.02L134.952 32.38C134.725 30.9 133.985 30.16 132.732 30.16C131.918 30.16 131.272 30.4733 130.792 31.1C130.312 31.7133 130.072 32.58 130.072 33.7C130.072 34.82 130.305 35.6933 130.772 36.32C131.238 36.9333 131.892 37.24 132.732 37.24C133.972 37.24 134.712 36.42 134.952 34.78ZM139.31 35.26V28.4H141.59V35C141.59 35.7867 141.73 36.34 142.01 36.66C142.303 36.9667 142.783 37.12 143.45 37.12C144.117 37.12 144.643 36.9333 145.03 36.56C145.43 36.1867 145.63 35.6133 145.63 34.84V28.4H147.91V39H145.71V37.98H145.67C145.043 38.86 144.13 39.3 142.93 39.3C141.717 39.3 140.81 38.9467 140.21 38.24C139.61 37.5333 139.31 36.54 139.31 35.26ZM150.914 39V28.4H153.074V29.52H153.114C153.327 29.12 153.634 28.8 154.034 28.56C154.434 28.32 154.861 28.2 155.314 28.2C155.621 28.2 155.934 28.2667 156.254 28.4L155.894 30.62C155.507 30.5133 155.227 30.46 155.054 30.46C153.814 30.46 153.194 31.34 153.194 33.1V39H150.914ZM157.965 39V28.4H160.125V29.52H160.165C160.378 29.12 160.685 28.8 161.085 28.56C161.485 28.32 161.912 28.2 162.365 28.2C162.672 28.2 162.985 28.2667 163.305 28.4L162.945 30.62C162.558 30.5133 162.278 30.46 162.105 30.46C160.865 30.46 160.245 31.34 160.245 33.1V39H157.965ZM172.251 35.48L173.891 36.82C172.864 38.4733 171.398 39.3 169.491 39.3C168.024 39.3 166.824 38.7933 165.891 37.78C164.971 36.7533 164.511 35.3933 164.511 33.7C164.511 32.0067 164.971 30.6533 165.891 29.64C166.811 28.6133 167.978 28.1 169.391 28.1C170.804 28.1 171.958 28.6067 172.851 29.62C173.758 30.6333 174.211 31.9933 174.211 33.7V34.38H166.811C166.838 35.26 167.078 35.9667 167.531 36.5C167.998 37.02 168.638 37.28 169.451 37.28C169.838 37.28 170.184 37.2267 170.491 37.12C170.798 37.0133 171.064 36.8533 171.291 36.64C171.531 36.4267 171.711 36.24 171.831 36.08C171.951 35.92 172.091 35.72 172.251 35.48ZM166.831 32.66H171.991C171.951 31.9133 171.711 31.3067 171.271 30.84C170.831 30.36 170.204 30.12 169.391 30.12C168.631 30.12 168.024 30.3733 167.571 30.88C167.118 31.3867 166.871 31.98 166.831 32.66ZM176.52 39V28.4H178.72V29.42H178.76C179.053 29.0467 179.46 28.7333 179.98 28.48C180.5 28.2267 181.046 28.1 181.62 28.1C182.793 28.1 183.713 28.4533 184.38 29.16C185.06 29.8533 185.4 30.82 185.4 32.06V39H183.14V32.66C183.14 31.02 182.453 30.2 181.08 30.2C180.386 30.2 179.833 30.4 179.42 30.8C179.006 31.2 178.8 31.74 178.8 32.42V39H176.52ZM194.737 34.78L196.997 35.26C196.784 36.54 196.297 37.5333 195.537 38.24C194.777 38.9467 193.77 39.3 192.517 39.3C191.077 39.3 189.897 38.8067 188.977 37.82C188.057 36.8333 187.597 35.46 187.597 33.7C187.597 32.0067 188.057 30.6533 188.977 29.64C189.91 28.6133 191.084 28.1 192.497 28.1C193.71 28.1 194.71 28.4667 195.497 29.2C196.284 29.92 196.744 30.86 196.877 32.02L194.737 32.38C194.51 30.9 193.77 30.16 192.517 30.16C191.704 30.16 191.057 30.4733 190.577 31.1C190.097 31.7133 189.857 32.58 189.857 33.7C189.857 34.82 190.09 35.6933 190.557 36.32C191.024 36.9333 191.677 37.24 192.517 37.24C193.757 37.24 194.497 36.42 194.737 34.78ZM199.625 43.5L201.625 38.52L197.505 28.4H199.905L202.685 35.7H202.725L205.505 28.4H207.865L201.825 43.5H199.625Z" fill="black"/>
<path d="M86.825 537.625V523.85L85.125 521.875H91.7C93.8333 521.875 95.4583 522.25 96.575 523C97.6917 523.733 98.25 524.817 98.25 526.25C98.25 527.583 97.775 528.692 96.825 529.575C95.8917 530.442 94.525 531.05 92.725 531.4C94.775 531.867 96.3083 533.567 97.325 536.5C97.6083 537.333 97.8833 537.908 98.15 538.225C98.4333 538.525 98.8167 538.675 99.3 538.675C99.2 539.675 98.6083 540.175 97.525 540.175C96.825 540.175 96.2667 539.925 95.85 539.425C95.45 538.925 95.0917 538.058 94.775 536.825C94.325 534.992 93.6667 533.683 92.8 532.9C91.95 532.117 90.7667 531.725 89.25 531.725V538.025L90.925 540H85.725L86.825 537.625ZM89.25 523.05V530.6H90.25C91.9833 530.6 93.35 530.233 94.35 529.5C95.35 528.75 95.85 527.733 95.85 526.45C95.85 525.35 95.4667 524.508 94.7 523.925C93.95 523.342 92.8667 523.05 91.45 523.05H89.25ZM103.004 533.325C103.087 535.108 103.57 536.475 104.454 537.425C105.337 538.358 106.57 538.825 108.154 538.825C109.037 538.825 109.82 538.658 110.504 538.325C111.204 537.975 111.954 537.4 112.754 536.6L112.979 536.775C112.345 537.942 111.52 538.825 110.504 539.425C109.487 540.008 108.304 540.3 106.954 540.3C105.637 540.3 104.487 540.025 103.504 539.475C102.537 538.908 101.787 538.117 101.254 537.1C100.737 536.067 100.479 534.867 100.479 533.5C100.479 532.083 100.754 530.833 101.304 529.75C101.854 528.65 102.62 527.8 103.604 527.2C104.604 526.583 105.754 526.275 107.054 526.275C108.87 526.275 110.254 526.883 111.204 528.1C112.17 529.3 112.637 531.042 112.604 533.325H103.004ZM106.954 527.45C105.787 527.45 104.854 527.875 104.154 528.725C103.454 529.558 103.062 530.742 102.979 532.275H110.404C110.404 530.692 110.112 529.492 109.529 528.675C108.945 527.858 108.087 527.45 106.954 527.45ZM127.63 536.825C126.314 539.142 124.322 540.3 121.655 540.3C120.339 540.3 119.172 540.025 118.155 539.475C117.155 538.925 116.372 538.15 115.805 537.15C115.255 536.15 114.98 534.975 114.98 533.625C114.98 532.242 115.272 530.992 115.855 529.875C116.439 528.758 117.239 527.883 118.255 527.25C119.289 526.6 120.447 526.275 121.73 526.275C122.68 526.275 123.547 526.45 124.33 526.8C125.13 527.15 125.755 527.625 126.205 528.225C126.672 528.808 126.905 529.45 126.905 530.15C126.905 530.6 126.797 530.95 126.58 531.2C126.38 531.433 126.089 531.55 125.705 531.55C125.322 531.55 125.03 531.433 124.83 531.2C124.63 530.95 124.505 530.558 124.455 530.025C124.255 528.358 123.364 527.525 121.78 527.525C120.48 527.525 119.439 528.033 118.655 529.05C117.872 530.067 117.48 531.417 117.48 533.1C117.48 534.9 117.93 536.3 118.83 537.3C119.73 538.3 120.98 538.8 122.58 538.8C124.414 538.8 126.022 538.083 127.405 536.65L127.63 536.825ZM129.141 533.375C129.141 531.942 129.424 530.692 129.991 529.625C130.574 528.542 131.382 527.717 132.416 527.15C133.466 526.567 134.682 526.275 136.066 526.275C137.466 526.275 138.691 526.558 139.741 527.125C140.791 527.692 141.599 528.508 142.166 529.575C142.732 530.642 143.016 531.892 143.016 533.325C143.016 534.742 142.732 535.975 142.166 537.025C141.616 538.075 140.816 538.883 139.766 539.45C138.732 540.017 137.499 540.3 136.066 540.3C134.649 540.3 133.416 540.017 132.366 539.45C131.332 538.883 130.532 538.083 129.966 537.05C129.416 536 129.141 534.775 129.141 533.375ZM140.491 533.325C140.491 531.458 140.099 530.017 139.316 529C138.532 527.967 137.449 527.45 136.066 527.45C134.682 527.45 133.607 527.958 132.841 528.975C132.074 529.992 131.691 531.442 131.691 533.325C131.691 535.192 132.057 536.625 132.791 537.625C133.541 538.608 134.632 539.1 136.066 539.1C137.482 539.1 138.574 538.6 139.341 537.6C140.107 536.6 140.491 535.175 140.491 533.325ZM146.56 537.675V529.125L144.435 526.75H148.71V531.3C149.01 529.883 149.551 528.767 150.335 527.95C151.118 527.117 152.026 526.7 153.06 526.7C153.56 526.7 153.951 526.817 154.235 527.05C154.535 527.267 154.685 527.583 154.685 528C154.685 528.383 154.543 528.692 154.26 528.925C153.976 529.158 153.585 529.275 153.085 529.275C152.901 529.275 152.66 529.242 152.36 529.175C152.293 529.158 152.21 529.142 152.11 529.125C152.01 529.108 151.893 529.1 151.76 529.1C151.676 529.1 151.551 529.117 151.385 529.15C150.268 529.517 149.451 530.733 148.935 532.8V538.1L150.585 540H145.485L146.56 537.675ZM161.398 540.3C160.298 540.3 159.332 540.008 158.498 539.425C157.665 538.842 157.023 538.017 156.573 536.95C156.123 535.883 155.898 534.65 155.898 533.25C155.898 531.85 156.123 530.625 156.573 529.575C157.023 528.525 157.657 527.717 158.473 527.15C159.307 526.567 160.273 526.275 161.373 526.275C162.357 526.275 163.24 526.517 164.023 527C164.807 527.467 165.44 528.133 165.923 529V523.625L163.798 521.25H168.323V538.1L169.948 540H166.148V537.1C165.715 538.1 165.082 538.883 164.248 539.45C163.415 540.017 162.465 540.3 161.398 540.3ZM162.273 538.575C163.107 538.575 163.848 538.342 164.498 537.875C165.148 537.408 165.623 536.767 165.923 535.95V530.625C165.623 529.808 165.148 529.167 164.498 528.7C163.848 528.217 163.107 527.975 162.273 527.975C161.073 527.975 160.123 528.45 159.423 529.4C158.74 530.35 158.398 531.642 158.398 533.275C158.398 534.908 158.74 536.2 159.423 537.15C160.123 538.1 161.073 538.575 162.273 538.575ZM176.87 533.375C176.87 531.942 177.153 530.692 177.72 529.625C178.303 528.542 179.112 527.717 180.145 527.15C181.195 526.567 182.412 526.275 183.795 526.275C185.195 526.275 186.42 526.558 187.47 527.125C188.52 527.692 189.328 528.508 189.895 529.575C190.462 530.642 190.745 531.892 190.745 533.325C190.745 534.742 190.462 535.975 189.895 537.025C189.345 538.075 188.545 538.883 187.495 539.45C186.462 540.017 185.228 540.3 183.795 540.3C182.378 540.3 181.145 540.017 180.095 539.45C179.062 538.883 178.262 538.083 177.695 537.05C177.145 536 176.87 534.775 176.87 533.375ZM188.22 533.325C188.22 531.458 187.828 530.017 187.045 529C186.262 527.967 185.178 527.45 183.795 527.45C182.412 527.45 181.337 527.958 180.57 528.975C179.803 529.992 179.42 531.442 179.42 533.325C179.42 535.192 179.787 536.625 180.52 537.625C181.27 538.608 182.362 539.1 183.795 539.1C185.212 539.1 186.303 538.6 187.07 537.6C187.837 536.6 188.22 535.175 188.22 533.325ZM194.294 537.75V528.1H191.894V526.75H194.144C193.694 526.217 193.469 525.525 193.469 524.675C193.469 523.608 193.827 522.733 194.544 522.05C195.277 521.35 196.202 521 197.319 521C197.952 521 198.452 521.117 198.819 521.35C199.186 521.583 199.369 521.908 199.369 522.325C199.369 522.625 199.261 522.867 199.044 523.05C198.844 523.233 198.561 523.325 198.194 523.325C197.944 523.325 197.636 523.242 197.269 523.075C197.119 523.008 196.961 522.95 196.794 522.9C196.644 522.85 196.486 522.825 196.319 522.825C195.802 522.825 195.402 522.983 195.119 523.3C194.836 523.617 194.694 524.05 194.694 524.6C194.694 525.267 194.919 525.792 195.369 526.175C195.836 526.558 196.477 526.75 197.294 526.75H198.694V528.1H196.669V538.15L198.269 540H193.244L194.294 537.75ZM206.894 526.75L207.719 522.45H209.244V526.75H212.419V528.15H209.244V536.3C209.244 537.217 209.402 537.892 209.719 538.325C210.052 538.758 210.552 538.975 211.219 538.975C211.886 538.975 212.436 538.758 212.869 538.325L213.069 538.5C212.802 539.083 212.419 539.533 211.919 539.85C211.419 540.15 210.811 540.3 210.094 540.3C209.061 540.3 208.261 539.983 207.694 539.35C207.127 538.717 206.844 537.833 206.844 536.7V528.15H204.294V526.75H206.894ZM216.115 537.675V523.625L213.99 521.25H218.49V529.575C219.04 528.508 219.732 527.7 220.565 527.15C221.415 526.583 222.365 526.3 223.415 526.3C224.782 526.3 225.824 526.758 226.54 527.675C227.257 528.592 227.615 529.917 227.615 531.65V538.15L229.215 540H224.165L225.215 537.75V531.725C225.215 529.225 224.34 527.975 222.59 527.975C221.657 527.975 220.824 528.317 220.09 529C219.357 529.667 218.824 530.583 218.49 531.75V538.1L220.14 540H215.04L216.115 537.675ZM233.375 533.325C233.458 535.108 233.941 536.475 234.825 537.425C235.708 538.358 236.941 538.825 238.525 538.825C239.408 538.825 240.191 538.658 240.875 538.325C241.575 537.975 242.325 537.4 243.125 536.6L243.35 536.775C242.716 537.942 241.891 538.825 240.875 539.425C239.858 540.008 238.675 540.3 237.325 540.3C236.008 540.3 234.858 540.025 233.875 539.475C232.908 538.908 232.158 538.117 231.625 537.1C231.108 536.067 230.85 534.867 230.85 533.5C230.85 532.083 231.125 530.833 231.675 529.75C232.225 528.65 232.991 527.8 233.975 527.2C234.975 526.583 236.125 526.275 237.425 526.275C239.241 526.275 240.625 526.883 241.575 528.1C242.541 529.3 243.008 531.042 242.975 533.325H233.375ZM237.325 527.45C236.158 527.45 235.225 527.875 234.525 528.725C233.825 529.558 233.433 530.742 233.35 532.275H240.775C240.775 530.692 240.483 529.492 239.9 528.675C239.316 527.858 238.458 527.45 237.325 527.45ZM255.856 540.3C254.756 540.3 253.79 540.008 252.956 539.425C252.123 538.842 251.481 538.017 251.031 536.95C250.581 535.883 250.356 534.65 250.356 533.25C250.356 531.85 250.581 530.625 251.031 529.575C251.481 528.525 252.115 527.717 252.931 527.15C253.765 526.567 254.731 526.275 255.831 526.275C256.815 526.275 257.698 526.517 258.481 527C259.265 527.467 259.898 528.133 260.381 529V523.625L258.256 521.25H262.781V538.1L264.406 540H260.606V537.1C260.173 538.1 259.54 538.883 258.706 539.45C257.873 540.017 256.923 540.3 255.856 540.3ZM256.731 538.575C257.565 538.575 258.306 538.342 258.956 537.875C259.606 537.408 260.081 536.767 260.381 535.95V530.625C260.081 529.808 259.606 529.167 258.956 528.7C258.306 528.217 257.565 527.975 256.731 527.975C255.531 527.975 254.581 528.45 253.881 529.4C253.198 530.35 252.856 531.642 252.856 533.275C252.856 534.908 253.198 536.2 253.881 537.15C254.581 538.1 255.531 538.575 256.731 538.575ZM270.698 540.3C269.365 540.3 268.298 539.983 267.498 539.35C266.715 538.7 266.323 537.825 266.323 536.725C266.323 535.892 266.582 535.183 267.098 534.6C267.632 534 268.398 533.542 269.398 533.225C270.682 532.775 272.432 532.55 274.648 532.55V531.375C274.648 528.658 273.607 527.3 271.523 527.3C270.69 527.3 270.048 527.508 269.598 527.925C269.165 528.325 268.94 528.917 268.923 529.7C268.89 530.7 268.523 531.2 267.823 531.2C267.49 531.2 267.223 531.075 267.023 530.825C266.823 530.575 266.723 530.233 266.723 529.8C266.723 529.133 266.94 528.533 267.373 528C267.807 527.45 268.398 527.025 269.148 526.725C269.915 526.425 270.782 526.275 271.748 526.275C273.415 526.275 274.707 526.725 275.623 527.625C276.557 528.525 277.023 529.792 277.023 531.425V537.15C277.023 538.017 277.332 538.45 277.948 538.45C278.182 538.45 278.357 538.417 278.473 538.35L278.573 538.45C278.507 538.95 278.307 539.333 277.973 539.6C277.657 539.867 277.248 540 276.748 540C276.232 540 275.798 539.842 275.448 539.525C275.098 539.208 274.89 538.8 274.823 538.3C274.457 538.933 273.915 539.425 273.198 539.775C272.498 540.125 271.665 540.3 270.698 540.3ZM271.598 539C272.298 539 272.907 538.833 273.423 538.5C273.957 538.167 274.365 537.692 274.648 537.075V533.35C273.832 533.35 273.015 533.417 272.198 533.55C271.398 533.683 270.757 533.858 270.273 534.075C269.273 534.525 268.773 535.292 268.773 536.375C268.773 537.175 269.032 537.817 269.548 538.3C270.065 538.767 270.748 539 271.598 539ZM281.918 526.75L282.743 522.45H284.268V526.75H287.443V528.15H284.268V536.3C284.268 537.217 284.427 537.892 284.743 538.325C285.077 538.758 285.577 538.975 286.243 538.975C286.91 538.975 287.46 538.758 287.893 538.325L288.093 538.5C287.827 539.083 287.443 539.533 286.943 539.85C286.443 540.15 285.835 540.3 285.118 540.3C284.085 540.3 283.285 539.983 282.718 539.35C282.152 538.717 281.868 537.833 281.868 536.7V528.15H279.318V526.75H281.918ZM293.965 540.3C292.632 540.3 291.565 539.983 290.765 539.35C289.982 538.7 289.59 537.825 289.59 536.725C289.59 535.892 289.848 535.183 290.365 534.6C290.898 534 291.665 533.542 292.665 533.225C293.948 532.775 295.698 532.55 297.915 532.55V531.375C297.915 528.658 296.873 527.3 294.79 527.3C293.957 527.3 293.315 527.508 292.865 527.925C292.432 528.325 292.207 528.917 292.19 529.7C292.157 530.7 291.79 531.2 291.09 531.2C290.757 531.2 290.49 531.075 290.29 530.825C290.09 530.575 289.99 530.233 289.99 529.8C289.99 529.133 290.207 528.533 290.64 528C291.073 527.45 291.665 527.025 292.415 526.725C293.182 526.425 294.048 526.275 295.015 526.275C296.682 526.275 297.973 526.725 298.89 527.625C299.823 528.525 300.29 529.792 300.29 531.425V537.15C300.29 538.017 300.598 538.45 301.215 538.45C301.448 538.45 301.623 538.417 301.74 538.35L301.84 538.45C301.773 538.95 301.573 539.333 301.24 539.6C300.923 539.867 300.515 540 300.015 540C299.498 540 299.065 539.842 298.715 539.525C298.365 539.208 298.157 538.8 298.09 538.3C297.723 538.933 297.182 539.425 296.465 539.775C295.765 540.125 294.932 540.3 293.965 540.3ZM294.865 539C295.565 539 296.173 538.833 296.69 538.5C297.223 538.167 297.632 537.692 297.915 537.075V533.35C297.098 533.35 296.282 533.417 295.465 533.55C294.665 533.683 294.023 533.858 293.54 534.075C292.54 534.525 292.04 535.292 292.04 536.375C292.04 537.175 292.298 537.817 292.815 538.3C293.332 538.767 294.015 539 294.865 539Z" fill="black"/>
<path d="M474.825 537.625V523.85L473.125 521.875H479.225C481.375 521.875 483.025 522.25 484.175 523C485.342 523.733 485.925 524.783 485.925 526.15C485.925 527.1 485.65 527.908 485.1 528.575C484.55 529.242 483.75 529.75 482.7 530.1C484.1 530.433 485.158 531 485.875 531.8C486.592 532.6 486.95 533.625 486.95 534.875C486.95 536.525 486.317 537.792 485.05 538.675C483.8 539.558 481.992 540 479.625 540H473.725L474.825 537.625ZM477.25 523.05V529.6H478.575C480.208 529.6 481.417 529.325 482.2 528.775C483 528.225 483.4 527.375 483.4 526.225C483.4 525.158 483.042 524.367 482.325 523.85C481.625 523.317 480.55 523.05 479.1 523.05H477.25ZM477.25 530.8V538.825H479.475C482.708 538.825 484.325 537.492 484.325 534.825C484.325 533.442 483.875 532.425 482.975 531.775C482.092 531.125 480.692 530.8 478.775 530.8H477.25ZM490.248 537.675V523.625L488.123 521.25H492.623V538.1L494.273 540H489.173L490.248 537.675ZM496.12 533.375C496.12 531.942 496.403 530.692 496.97 529.625C497.553 528.542 498.362 527.717 499.395 527.15C500.445 526.567 501.662 526.275 503.045 526.275C504.445 526.275 505.67 526.558 506.72 527.125C507.77 527.692 508.578 528.508 509.145 529.575C509.712 530.642 509.995 531.892 509.995 533.325C509.995 534.742 509.712 535.975 509.145 537.025C508.595 538.075 507.795 538.883 506.745 539.45C505.712 540.017 504.478 540.3 503.045 540.3C501.628 540.3 500.395 540.017 499.345 539.45C498.312 538.883 497.512 538.083 496.945 537.05C496.395 536 496.12 534.775 496.12 533.375ZM507.47 533.325C507.47 531.458 507.078 530.017 506.295 529C505.512 527.967 504.428 527.45 503.045 527.45C501.662 527.45 500.587 527.958 499.82 528.975C499.053 529.992 498.67 531.442 498.67 533.325C498.67 535.192 499.037 536.625 499.77 537.625C500.52 538.608 501.612 539.1 503.045 539.1C504.462 539.1 505.553 538.6 506.32 537.6C507.087 536.6 507.47 535.175 507.47 533.325ZM524.957 536.825C523.64 539.142 521.648 540.3 518.982 540.3C517.665 540.3 516.498 540.025 515.482 539.475C514.482 538.925 513.698 538.15 513.132 537.15C512.582 536.15 512.307 534.975 512.307 533.625C512.307 532.242 512.598 530.992 513.182 529.875C513.765 528.758 514.565 527.883 515.582 527.25C516.615 526.6 517.773 526.275 519.057 526.275C520.007 526.275 520.873 526.45 521.657 526.8C522.457 527.15 523.082 527.625 523.532 528.225C523.998 528.808 524.232 529.45 524.232 530.15C524.232 530.6 524.123 530.95 523.907 531.2C523.707 531.433 523.415 531.55 523.032 531.55C522.648 531.55 522.357 531.433 522.157 531.2C521.957 530.95 521.832 530.558 521.782 530.025C521.582 528.358 520.69 527.525 519.107 527.525C517.807 527.525 516.765 528.033 515.982 529.05C515.198 530.067 514.807 531.417 514.807 533.1C514.807 534.9 515.257 536.3 516.157 537.3C517.057 538.3 518.307 538.8 519.907 538.8C521.74 538.8 523.348 538.083 524.732 536.65L524.957 536.825ZM527.895 537.625V523.65L525.72 521.25H530.27V533.775L535.995 528.6L534.67 526.75H539.67L533.495 532.325L539.945 540H534.845L535.445 538.1L531.77 533.825L530.27 535.2V538.175L531.845 540H526.795L527.895 537.625ZM541.488 536.45L543.588 537.6C544.505 538.1 545.33 538.467 546.063 538.7C546.813 538.917 547.547 539.025 548.263 539.025C549.097 539.025 549.722 538.883 550.138 538.6C550.555 538.3 550.763 537.842 550.763 537.225C550.763 536.558 550.455 536.008 549.838 535.575C549.238 535.142 548.172 534.708 546.638 534.275C544.855 533.808 543.547 533.208 542.713 532.475C541.88 531.742 541.463 530.833 541.463 529.75C541.463 528.667 541.822 527.817 542.538 527.2C543.255 526.583 544.23 526.275 545.463 526.275C546.913 526.275 548.297 526.725 549.613 527.625L551.688 526.6V530.4L549.838 529.125C548.322 528.042 546.922 527.5 545.638 527.5C544.922 527.5 544.372 527.65 543.988 527.95C543.622 528.25 543.438 528.683 543.438 529.25C543.438 529.917 543.73 530.458 544.313 530.875C544.913 531.275 545.947 531.667 547.413 532.05C549.297 532.517 550.663 533.108 551.513 533.825C552.38 534.542 552.813 535.467 552.813 536.6C552.813 537.767 552.413 538.675 551.613 539.325C550.83 539.975 549.722 540.3 548.288 540.3C546.755 540.3 545.288 539.875 543.888 539.025L541.488 540.25V536.45ZM560.085 533.375C560.085 531.942 560.368 530.692 560.935 529.625C561.518 528.542 562.327 527.717 563.36 527.15C564.41 526.567 565.627 526.275 567.01 526.275C568.41 526.275 569.635 526.558 570.685 527.125C571.735 527.692 572.543 528.508 573.11 529.575C573.677 530.642 573.96 531.892 573.96 533.325C573.96 534.742 573.677 535.975 573.11 537.025C572.56 538.075 571.76 538.883 570.71 539.45C569.677 540.017 568.443 540.3 567.01 540.3C565.593 540.3 564.36 540.017 563.31 539.45C562.277 538.883 561.477 538.083 560.91 537.05C560.36 536 560.085 534.775 560.085 533.375ZM571.435 533.325C571.435 531.458 571.043 530.017 570.26 529C569.477 527.967 568.393 527.45 567.01 527.45C565.627 527.45 564.552 527.958 563.785 528.975C563.018 529.992 562.635 531.442 562.635 533.325C562.635 535.192 563.002 536.625 563.735 537.625C564.485 538.608 565.577 539.1 567.01 539.1C568.427 539.1 569.518 538.6 570.285 537.6C571.052 536.6 571.435 535.175 571.435 533.325ZM577.509 537.75V528.1H575.109V526.75H577.359C576.909 526.217 576.684 525.525 576.684 524.675C576.684 523.608 577.042 522.733 577.759 522.05C578.492 521.35 579.417 521 580.534 521C581.167 521 581.667 521.117 582.034 521.35C582.4 521.583 582.584 521.908 582.584 522.325C582.584 522.625 582.475 522.867 582.259 523.05C582.059 523.233 581.775 523.325 581.409 523.325C581.159 523.325 580.85 523.242 580.484 523.075C580.334 523.008 580.175 522.95 580.009 522.9C579.859 522.85 579.7 522.825 579.534 522.825C579.017 522.825 578.617 522.983 578.334 523.3C578.05 523.617 577.909 524.05 577.909 524.6C577.909 525.267 578.134 525.792 578.584 526.175C579.05 526.558 579.692 526.75 580.509 526.75H581.909V528.1H579.884V538.15L581.484 540H576.459L577.509 537.75ZM589.809 537.675V529.125L587.684 526.75H591.959V531.3C592.259 529.883 592.8 528.767 593.584 527.95C594.367 527.117 595.275 526.7 596.309 526.7C596.809 526.7 597.2 526.817 597.484 527.05C597.784 527.267 597.934 527.583 597.934 528C597.934 528.383 597.792 528.692 597.509 528.925C597.225 529.158 596.834 529.275 596.334 529.275C596.15 529.275 595.909 529.242 595.609 529.175C595.542 529.158 595.459 529.142 595.359 529.125C595.259 529.108 595.142 529.1 595.009 529.1C594.925 529.1 594.8 529.117 594.634 529.15C593.517 529.517 592.7 530.733 592.184 532.8V538.1L593.834 540H588.734L589.809 537.675ZM601.672 533.325C601.756 535.108 602.239 536.475 603.122 537.425C604.006 538.358 605.239 538.825 606.822 538.825C607.706 538.825 608.489 538.658 609.172 538.325C609.872 537.975 610.622 537.4 611.422 536.6L611.647 536.775C611.014 537.942 610.189 538.825 609.172 539.425C608.156 540.008 606.972 540.3 605.622 540.3C604.306 540.3 603.156 540.025 602.172 539.475C601.206 538.908 600.456 538.117 599.922 537.1C599.406 536.067 599.147 534.867 599.147 533.5C599.147 532.083 599.422 530.833 599.972 529.75C600.522 528.65 601.289 527.8 602.272 527.2C603.272 526.583 604.422 526.275 605.722 526.275C607.539 526.275 608.922 526.883 609.872 528.1C610.839 529.3 611.306 531.042 611.272 533.325H601.672ZM605.622 527.45C604.456 527.45 603.522 527.875 602.822 528.725C602.122 529.558 601.731 530.742 601.647 532.275H609.072C609.072 530.692 608.781 529.492 608.197 528.675C607.614 527.858 606.756 527.45 605.622 527.45ZM626.299 536.825C624.983 539.142 622.991 540.3 620.324 540.3C619.008 540.3 617.841 540.025 616.824 539.475C615.824 538.925 615.041 538.15 614.474 537.15C613.924 536.15 613.649 534.975 613.649 533.625C613.649 532.242 613.941 530.992 614.524 529.875C615.108 528.758 615.908 527.883 616.924 527.25C617.958 526.6 619.116 526.275 620.399 526.275C621.349 526.275 622.216 526.45 622.999 526.8C623.799 527.15 624.424 527.625 624.874 528.225C625.341 528.808 625.574 529.45 625.574 530.15C625.574 530.6 625.466 530.95 625.249 531.2C625.049 531.433 624.758 531.55 624.374 531.55C623.991 531.55 623.699 531.433 623.499 531.2C623.299 530.95 623.174 530.558 623.124 530.025C622.924 528.358 622.033 527.525 620.449 527.525C619.149 527.525 618.108 528.033 617.324 529.05C616.541 530.067 616.149 531.417 616.149 533.1C616.149 534.9 616.599 536.3 617.499 537.3C618.399 538.3 619.649 538.8 621.249 538.8C623.083 538.8 624.691 538.083 626.074 536.65L626.299 536.825ZM627.81 533.375C627.81 531.942 628.093 530.692 628.66 529.625C629.243 528.542 630.051 527.717 631.085 527.15C632.135 526.567 633.351 526.275 634.735 526.275C636.135 526.275 637.36 526.558 638.41 527.125C639.46 527.692 640.268 528.508 640.835 529.575C641.401 530.642 641.685 531.892 641.685 533.325C641.685 534.742 641.401 535.975 640.835 537.025C640.285 538.075 639.485 538.883 638.435 539.45C637.401 540.017 636.168 540.3 634.735 540.3C633.318 540.3 632.085 540.017 631.035 539.45C630.001 538.883 629.201 538.083 628.635 537.05C628.085 536 627.81 534.775 627.81 533.375ZM639.16 533.325C639.16 531.458 638.768 530.017 637.985 529C637.201 527.967 636.118 527.45 634.735 527.45C633.351 527.45 632.276 527.958 631.51 528.975C630.743 529.992 630.36 531.442 630.36 533.325C630.36 535.192 630.726 536.625 631.46 537.625C632.21 538.608 633.301 539.1 634.735 539.1C636.151 539.1 637.243 538.6 638.01 537.6C638.776 536.6 639.16 535.175 639.16 533.325ZM645.229 537.675V529.125L643.104 526.75H647.379V531.3C647.679 529.883 648.22 528.767 649.004 527.95C649.787 527.117 650.695 526.7 651.729 526.7C652.229 526.7 652.62 526.817 652.904 527.05C653.204 527.267 653.354 527.583 653.354 528C653.354 528.383 653.212 528.692 652.929 528.925C652.645 529.158 652.254 529.275 651.754 529.275C651.57 529.275 651.329 529.242 651.029 529.175C650.962 529.158 650.879 529.142 650.779 529.125C650.679 529.108 650.562 529.1 650.429 529.1C650.345 529.1 650.22 529.117 650.054 529.15C648.937 529.517 648.12 530.733 647.604 532.8V538.1L649.254 540H644.154L645.229 537.675ZM660.067 540.3C658.967 540.3 658.001 540.008 657.167 539.425C656.334 538.842 655.692 538.017 655.242 536.95C654.792 535.883 654.567 534.65 654.567 533.25C654.567 531.85 654.792 530.625 655.242 529.575C655.692 528.525 656.326 527.717 657.142 527.15C657.976 526.567 658.942 526.275 660.042 526.275C661.026 526.275 661.909 526.517 662.692 527C663.476 527.467 664.109 528.133 664.592 529V523.625L662.467 521.25H666.992V538.1L668.617 540H664.817V537.1C664.384 538.1 663.751 538.883 662.917 539.45C662.084 540.017 661.134 540.3 660.067 540.3ZM660.942 538.575C661.776 538.575 662.517 538.342 663.167 537.875C663.817 537.408 664.292 536.767 664.592 535.95V530.625C664.292 529.808 663.817 529.167 663.167 528.7C662.517 528.217 661.776 527.975 660.942 527.975C659.742 527.975 658.792 528.45 658.092 529.4C657.409 530.35 657.067 531.642 657.067 533.275C657.067 534.908 657.409 536.2 658.092 537.15C658.792 538.1 659.742 538.575 660.942 538.575ZM670.834 536.45L672.934 537.6C673.851 538.1 674.676 538.467 675.409 538.7C676.159 538.917 676.893 539.025 677.609 539.025C678.443 539.025 679.068 538.883 679.484 538.6C679.901 538.3 680.109 537.842 680.109 537.225C680.109 536.558 679.801 536.008 679.184 535.575C678.584 535.142 677.518 534.708 675.984 534.275C674.201 533.808 672.893 533.208 672.059 532.475C671.226 531.742 670.809 530.833 670.809 529.75C670.809 528.667 671.168 527.817 671.884 527.2C672.601 526.583 673.576 526.275 674.809 526.275C676.259 526.275 677.643 526.725 678.959 527.625L681.034 526.6V530.4L679.184 529.125C677.668 528.042 676.268 527.5 674.984 527.5C674.268 527.5 673.718 527.65 673.334 527.95C672.968 528.25 672.784 528.683 672.784 529.25C672.784 529.917 673.076 530.458 673.659 530.875C674.259 531.275 675.293 531.667 676.759 532.05C678.643 532.517 680.009 533.108 680.859 533.825C681.726 534.542 682.159 535.467 682.159 536.6C682.159 537.767 681.759 538.675 680.959 539.325C680.176 539.975 679.068 540.3 677.634 540.3C676.101 540.3 674.634 539.875 673.234 539.025L670.834 540.25V536.45Z" fill="black"/>
<path d="M882.7 538.9C880.817 539.833 878.9 540.3 876.95 540.3C874.367 540.3 872.4 539.525 871.05 537.975C869.7 536.425 869.025 534.175 869.025 531.225C869.025 529.225 869.333 527.5 869.95 526.05C870.583 524.583 871.483 523.467 872.65 522.7C873.817 521.917 875.2 521.525 876.8 521.525C877.583 521.525 878.317 521.617 879 521.8C879.7 521.983 880.283 522.242 880.75 522.575L882.275 521.675V527.15L881.025 525.05C880.525 524.233 879.917 523.608 879.2 523.175C878.483 522.725 877.708 522.5 876.875 522.5C875.242 522.5 873.967 523.25 873.05 524.75C872.15 526.25 871.7 528.325 871.7 530.975C871.7 533.642 872.167 535.7 873.1 537.15C874.05 538.583 875.383 539.3 877.1 539.3C878.083 539.3 878.975 539.05 879.775 538.55C880.592 538.05 881.275 537.325 881.825 536.375L882.7 534.85V538.9ZM887.054 537.675V523.625L884.929 521.25H889.429V529.575C889.979 528.508 890.671 527.7 891.504 527.15C892.354 526.583 893.304 526.3 894.354 526.3C895.721 526.3 896.762 526.758 897.479 527.675C898.196 528.592 898.554 529.917 898.554 531.65V538.15L900.154 540H895.104L896.154 537.75V531.725C896.154 529.225 895.279 527.975 893.529 527.975C892.596 527.975 891.762 528.317 891.029 529C890.296 529.667 889.762 530.583 889.429 531.75V538.1L891.079 540H885.979L887.054 537.675ZM906.163 540.3C904.83 540.3 903.763 539.983 902.963 539.35C902.18 538.7 901.788 537.825 901.788 536.725C901.788 535.892 902.046 535.183 902.563 534.6C903.096 534 903.863 533.542 904.863 533.225C906.146 532.775 907.896 532.55 910.113 532.55V531.375C910.113 528.658 909.071 527.3 906.988 527.3C906.155 527.3 905.513 527.508 905.063 527.925C904.63 528.325 904.405 528.917 904.388 529.7C904.355 530.7 903.988 531.2 903.288 531.2C902.955 531.2 902.688 531.075 902.488 530.825C902.288 530.575 902.188 530.233 902.188 529.8C902.188 529.133 902.405 528.533 902.838 528C903.271 527.45 903.863 527.025 904.613 526.725C905.38 526.425 906.246 526.275 907.213 526.275C908.88 526.275 910.171 526.725 911.088 527.625C912.021 528.525 912.488 529.792 912.488 531.425V537.15C912.488 538.017 912.796 538.45 913.413 538.45C913.646 538.45 913.821 538.417 913.938 538.35L914.038 538.45C913.971 538.95 913.771 539.333 913.438 539.6C913.121 539.867 912.713 540 912.213 540C911.696 540 911.263 539.842 910.913 539.525C910.563 539.208 910.355 538.8 910.288 538.3C909.921 538.933 909.38 539.425 908.663 539.775C907.963 540.125 907.13 540.3 906.163 540.3ZM907.063 539C907.763 539 908.371 538.833 908.888 538.5C909.421 538.167 909.83 537.692 910.113 537.075V533.35C909.296 533.35 908.48 533.417 907.663 533.55C906.863 533.683 906.221 533.858 905.738 534.075C904.738 534.525 904.238 535.292 904.238 536.375C904.238 537.175 904.496 537.817 905.013 538.3C905.53 538.767 906.213 539 907.063 539ZM918.502 521.3C918.919 521.3 919.269 521.442 919.552 521.725C919.836 522.008 919.977 522.367 919.977 522.8C919.977 523.233 919.836 523.592 919.552 523.875C919.286 524.158 918.936 524.3 918.502 524.3C918.069 524.3 917.711 524.158 917.427 523.875C917.161 523.592 917.027 523.233 917.027 522.8C917.027 522.367 917.169 522.008 917.452 521.725C917.736 521.442 918.086 521.3 918.502 521.3ZM917.327 537.675V529.125L915.202 526.75H919.702V538.1L921.352 540H916.252L917.327 537.675ZM924.798 537.675V529.125L922.673 526.75H926.948V530.05C927.481 528.85 928.19 527.925 929.073 527.275C929.956 526.625 930.973 526.3 932.123 526.3C933.473 526.3 934.506 526.758 935.223 527.675C935.94 528.592 936.298 529.917 936.298 531.65V538.15L937.898 540H932.848L933.898 537.75V531.725C933.898 529.225 933.023 527.975 931.273 527.975C930.34 527.975 929.506 528.317 928.773 529C928.04 529.667 927.506 530.583 927.173 531.75V538.1L928.823 540H923.723L924.798 537.675ZM944.586 533.375C944.586 531.942 944.869 530.692 945.436 529.625C946.019 528.542 946.828 527.717 947.861 527.15C948.911 526.567 950.128 526.275 951.511 526.275C952.911 526.275 954.136 526.558 955.186 527.125C956.236 527.692 957.044 528.508 957.611 529.575C958.178 530.642 958.461 531.892 958.461 533.325C958.461 534.742 958.178 535.975 957.611 537.025C957.061 538.075 956.261 538.883 955.211 539.45C954.178 540.017 952.944 540.3 951.511 540.3C950.094 540.3 948.861 540.017 947.811 539.45C946.778 538.883 945.978 538.083 945.411 537.05C944.861 536 944.586 534.775 944.586 533.375ZM955.936 533.325C955.936 531.458 955.544 530.017 954.761 529C953.978 527.967 952.894 527.45 951.511 527.45C950.128 527.45 949.053 527.958 948.286 528.975C947.519 529.992 947.136 531.442 947.136 533.325C947.136 535.192 947.503 536.625 948.236 537.625C948.986 538.608 950.078 539.1 951.511 539.1C952.928 539.1 954.019 538.6 954.786 537.6C955.553 536.6 955.936 535.175 955.936 533.325ZM962.01 537.75V528.1H959.61V526.75H961.86C961.41 526.217 961.185 525.525 961.185 524.675C961.185 523.608 961.543 522.733 962.26 522.05C962.993 521.35 963.918 521 965.035 521C965.668 521 966.168 521.117 966.535 521.35C966.901 521.583 967.085 521.908 967.085 522.325C967.085 522.625 966.976 522.867 966.76 523.05C966.56 523.233 966.276 523.325 965.91 523.325C965.66 523.325 965.351 523.242 964.985 523.075C964.835 523.008 964.676 522.95 964.51 522.9C964.36 522.85 964.201 522.825 964.035 522.825C963.518 522.825 963.118 522.983 962.835 523.3C962.551 523.617 962.41 524.05 962.41 524.6C962.41 525.267 962.635 525.792 963.085 526.175C963.551 526.558 964.193 526.75 965.01 526.75H966.41V528.1H964.385V538.15L965.985 540H960.96L962.01 537.75ZM976.435 521.25V528.975C976.918 528.108 977.551 527.442 978.335 526.975C979.118 526.508 980.001 526.275 980.985 526.275C982.085 526.275 983.043 526.567 983.86 527.15C984.693 527.717 985.335 528.525 985.785 529.575C986.235 530.625 986.46 531.85 986.46 533.25C986.46 534.667 986.235 535.908 985.785 536.975C985.335 538.025 984.693 538.842 983.86 539.425C983.026 540.008 982.06 540.3 980.96 540.3C979.926 540.3 979.001 540.042 978.185 539.525C977.385 539.008 976.76 538.292 976.31 537.375L976.085 540H974.06V523.275L972.285 521.25H976.435ZM976.435 535.95C976.735 536.767 977.21 537.408 977.86 537.875C978.51 538.342 979.26 538.575 980.11 538.575C981.31 538.575 982.251 538.1 982.935 537.15C983.635 536.2 983.985 534.908 983.985 533.275C983.985 531.642 983.635 530.35 982.935 529.4C982.251 528.45 981.31 527.975 980.11 527.975C979.26 527.975 978.51 528.217 977.86 528.7C977.21 529.167 976.735 529.808 976.435 530.625V535.95ZM990.008 537.675V523.625L987.883 521.25H992.383V538.1L994.033 540H988.933L990.008 537.675ZM995.88 533.375C995.88 531.942 996.163 530.692 996.73 529.625C997.313 528.542 998.122 527.717 999.155 527.15C1000.2 526.567 1001.42 526.275 1002.8 526.275C1004.2 526.275 1005.43 526.558 1006.48 527.125C1007.53 527.692 1008.34 528.508 1008.9 529.575C1009.47 530.642 1009.75 531.892 1009.75 533.325C1009.75 534.742 1009.47 535.975 1008.9 537.025C1008.35 538.075 1007.55 538.883 1006.5 539.45C1005.47 540.017 1004.24 540.3 1002.8 540.3C1001.39 540.3 1000.15 540.017 999.105 539.45C998.072 538.883 997.272 538.083 996.705 537.05C996.155 536 995.88 534.775 995.88 533.375ZM1007.23 533.325C1007.23 531.458 1006.84 530.017 1006.05 529C1005.27 527.967 1004.19 527.45 1002.8 527.45C1001.42 527.45 1000.35 527.958 999.58 528.975C998.813 529.992 998.43 531.442 998.43 533.325C998.43 535.192 998.797 536.625 999.53 537.625C1000.28 538.608 1001.37 539.1 1002.8 539.1C1004.22 539.1 1005.31 538.6 1006.08 537.6C1006.85 536.6 1007.23 535.175 1007.23 533.325ZM1024.72 536.825C1023.4 539.142 1021.41 540.3 1018.74 540.3C1017.42 540.3 1016.26 540.025 1015.24 539.475C1014.24 538.925 1013.46 538.15 1012.89 537.15C1012.34 536.15 1012.07 534.975 1012.07 533.625C1012.07 532.242 1012.36 530.992 1012.94 529.875C1013.52 528.758 1014.32 527.883 1015.34 527.25C1016.37 526.6 1017.53 526.275 1018.82 526.275C1019.77 526.275 1020.63 526.45 1021.42 526.8C1022.22 527.15 1022.84 527.625 1023.29 528.225C1023.76 528.808 1023.99 529.45 1023.99 530.15C1023.99 530.6 1023.88 530.95 1023.67 531.2C1023.47 531.433 1023.17 531.55 1022.79 531.55C1022.41 531.55 1022.12 531.433 1021.92 531.2C1021.72 530.95 1021.59 530.558 1021.54 530.025C1021.34 528.358 1020.45 527.525 1018.87 527.525C1017.57 527.525 1016.52 528.033 1015.74 529.05C1014.96 530.067 1014.57 531.417 1014.57 533.1C1014.57 534.9 1015.02 536.3 1015.92 537.3C1016.82 538.3 1018.07 538.8 1019.67 538.8C1021.5 538.8 1023.11 538.083 1024.49 536.65L1024.72 536.825ZM1027.65 537.625V523.65L1025.48 521.25H1030.03V533.775L1035.75 528.6L1034.43 526.75H1039.43L1033.25 532.325L1039.7 540H1034.6L1035.2 538.1L1031.53 533.825L1030.03 535.2V538.175L1031.6 540H1026.55L1027.65 537.625ZM1041.25 536.45L1043.35 537.6C1044.26 538.1 1045.09 538.467 1045.82 538.7C1046.57 538.917 1047.31 539.025 1048.02 539.025C1048.86 539.025 1049.48 538.883 1049.9 538.6C1050.31 538.3 1050.52 537.842 1050.52 537.225C1050.52 536.558 1050.21 536.008 1049.6 535.575C1049 535.142 1047.93 534.708 1046.4 534.275C1044.61 533.808 1043.31 533.208 1042.47 532.475C1041.64 531.742 1041.22 530.833 1041.22 529.75C1041.22 528.667 1041.58 527.817 1042.3 527.2C1043.01 526.583 1043.99 526.275 1045.22 526.275C1046.67 526.275 1048.06 526.725 1049.37 527.625L1051.45 526.6V530.4L1049.6 529.125C1048.08 528.042 1046.68 527.5 1045.4 527.5C1044.68 527.5 1044.13 527.65 1043.75 527.95C1043.38 528.25 1043.2 528.683 1043.2 529.25C1043.2 529.917 1043.49 530.458 1044.07 530.875C1044.67 531.275 1045.71 531.667 1047.17 532.05C1049.06 532.517 1050.42 533.108 1051.27 533.825C1052.14 534.542 1052.57 535.467 1052.57 536.6C1052.57 537.767 1052.17 538.675 1051.37 539.325C1050.59 539.975 1049.48 540.3 1048.05 540.3C1046.51 540.3 1045.05 539.875 1043.65 539.025L1041.25 540.25V536.45Z" fill="black"/>
<g clip-path="url(#clip0)">
<path d="M237 320.357L196.433 344L155.937 320.357L196.433 296.714L237 320.357Z" fill="black"/>
<path d="M185.973 296.5L185.832 337.429L150.565 316.857L150.707 276L185.973 296.5Z" fill="#797E76" stroke="black" stroke-miterlimit="10"/>
<path d="M185.973 296.5L220.957 276L220.816 316.857L185.832 337.429L185.973 296.5Z" fill="#AEB5AA" stroke="black" stroke-miterlimit="10"/>
<path d="M150.707 276L185.691 255.429L220.957 276L185.973 296.5L150.707 276Z" fill="#C2CBBE" stroke="black" stroke-miterlimit="10"/>
</g>
<g clip-path="url(#clip1)">
<path d="M566.277 345.873L526.266 368.995L486.324 345.873L526.336 322.751L566.277 345.873Z" fill="black"/>
<path d="M618.139 375.84L578.127 399.032L538.186 375.84L578.127 352.718L618.139 375.84Z" fill="black"/>
<path d="M670 405.878L629.989 429L590.047 405.878L629.989 382.756L670 405.878Z" fill="black"/>
<path d="M520.202 324.567L520.132 364.594L485.349 344.476L485.488 304.449L520.202 324.567Z" fill="#797E76" stroke="black" stroke-miterlimit="10" stroke-linecap="round" stroke-linejoin="round"/>
<path d="M520.202 324.567L554.706 304.449L554.636 344.476L520.132 364.594L520.202 324.567Z" fill="#AEB5AA" stroke="black" stroke-miterlimit="10" stroke-linecap="round" stroke-linejoin="round"/>
<path d="M554.706 304.449L527.939 320.026L520.202 324.567L485.488 304.449L519.992 284.33L528.985 289.57L554.706 304.449Z" fill="#C2CBBE" stroke="black" stroke-miterlimit="10" stroke-linecap="round" stroke-linejoin="round"/>
<path d="M554.706 304.449L527.939 320.026L502.217 305.147L528.985 289.57L554.706 304.449Z" fill="#797E76"/>
<path d="M554.706 304.449L527.939 320.026L520.202 324.567L485.488 304.449L519.992 284.33L528.985 289.57L554.706 304.449Z" stroke="black" stroke-miterlimit="10" stroke-linecap="round" stroke-linejoin="round"/>
<path d="M520.202 267.006L520.132 307.033L485.349 286.915L485.488 246.888L520.202 267.006Z" fill="#797E76" stroke="black" stroke-miterlimit="10" stroke-linecap="round" stroke-linejoin="round"/>
<path d="M520.202 267.006L554.706 246.888L554.636 286.915L520.132 307.033L520.202 267.006Z" fill="#AEB5AA" stroke="black" stroke-miterlimit="10" stroke-linecap="round" stroke-linejoin="round"/>
<path d="M554.706 246.888L527.939 262.536L520.202 267.006L485.488 246.888L519.992 226.77L528.985 232.009L554.706 246.888Z" fill="#C2CBBE" stroke="black" stroke-miterlimit="10" stroke-linecap="round" stroke-linejoin="round"/>
<path d="M554.706 246.888L527.939 262.536L502.217 247.587L528.985 232.009L554.706 246.888Z" fill="#797E76"/>
<path d="M554.706 246.888L527.939 262.536L520.202 267.006L485.488 246.888L519.992 226.77L528.985 232.009L554.706 246.888Z" stroke="black" stroke-miterlimit="10" stroke-linecap="round" stroke-linejoin="round"/>
<path d="M520.202 209.586L520.132 249.612L485.349 229.494L485.488 189.467L520.202 209.586Z" fill="#797E76" stroke="black" stroke-miterlimit="10" stroke-linecap="round" stroke-linejoin="round"/>
<path d="M520.202 209.586L554.706 189.467L554.636 229.494L520.132 249.612L520.202 209.586Z" fill="#AEB5AA" stroke="black" stroke-miterlimit="10" stroke-linecap="round" stroke-linejoin="round"/>
<path d="M485.488 189.467L519.992 169.349L554.706 189.467L520.202 209.586L485.488 189.467Z" fill="#C2CBBE" stroke="black" stroke-miterlimit="10" stroke-linecap="round" stroke-linejoin="round"/>
<path d="M571.924 354.395L571.784 394.422L537.001 374.303L537.14 334.277L571.924 354.395Z" fill="#797E76" stroke="black" stroke-miterlimit="10" stroke-linecap="round" stroke-linejoin="round"/>
<path d="M571.924 354.395L606.428 334.277L606.289 374.303L571.784 394.422L571.924 354.395Z" fill="#AEB5AA" stroke="black" stroke-miterlimit="10" stroke-linecap="round" stroke-linejoin="round"/>
<path d="M606.428 334.277L579.661 349.924L571.924 354.395L537.14 334.277L571.645 314.158L580.706 319.398L606.428 334.277Z" fill="#C2CBBE" stroke="black" stroke-miterlimit="10" stroke-linecap="round" stroke-linejoin="round"/>
<path d="M606.428 334.277L579.661 349.924L553.87 335.045L580.706 319.398L606.428 334.277Z" fill="#797E76"/>
<path d="M606.428 334.277L579.661 349.924L571.924 354.395L537.14 334.277L571.645 314.158L580.706 319.398L606.428 334.277Z" stroke="black" stroke-miterlimit="10" stroke-linecap="round" stroke-linejoin="round"/>
<path d="M571.924 296.834L571.784 336.861L537.001 316.743L537.14 276.786L571.924 296.834Z" fill="#797E76" stroke="black" stroke-miterlimit="10" stroke-linecap="round" stroke-linejoin="round"/>
<path d="M571.924 296.834L606.428 276.786L606.289 316.743L571.784 336.861L571.924 296.834Z" fill="#AEB5AA" stroke="black" stroke-miterlimit="10" stroke-linecap="round" stroke-linejoin="round"/>
<path d="M606.428 276.716L579.661 292.364L571.924 296.834L537.14 276.716L571.645 256.668L580.706 261.837L606.428 276.716Z" fill="#C2CBBE" stroke="black" stroke-miterlimit="10" stroke-linecap="round" stroke-linejoin="round"/>
<path d="M606.428 276.716L579.661 292.364L553.87 277.485L580.706 261.837L606.428 276.716Z" fill="#797E76"/>
<path d="M606.428 276.716L579.661 292.364L571.924 296.834L537.14 276.716L571.645 256.668L580.706 261.837L606.428 276.716Z" stroke="black" stroke-miterlimit="10" stroke-linecap="round" stroke-linejoin="round"/>
<path d="M571.924 239.414L571.784 279.441L537.001 259.322L537.14 219.295L571.924 239.414Z" fill="#797E76" stroke="black" stroke-miterlimit="10" stroke-linecap="round" stroke-linejoin="round"/>
<path d="M571.924 239.414L606.428 219.295L606.289 259.322L571.784 279.441L571.924 239.414Z" fill="#AEB5AA" stroke="black" stroke-miterlimit="10" stroke-linecap="round" stroke-linejoin="round"/>
<path d="M537.14 219.295L571.645 199.177L606.428 219.295L571.924 239.414L537.14 219.295Z" fill="#C2CBBE" stroke="black" stroke-miterlimit="10" stroke-linecap="round" stroke-linejoin="round"/>
<path d="M623.367 384.223L623.297 424.25L588.514 404.132L588.653 364.105L623.367 384.223Z" fill="#797E76" stroke="black" stroke-miterlimit="10" stroke-linecap="round" stroke-linejoin="round"/>
<path d="M623.367 384.223L657.941 364.105L657.801 404.132L623.297 424.25L623.367 384.223Z" fill="#AEB5AA" stroke="black" stroke-miterlimit="10" stroke-linecap="round" stroke-linejoin="round"/>
<path d="M657.941 364.105L631.104 379.682L623.367 384.223L588.653 364.105L623.158 343.987L632.15 349.226L657.941 364.105Z" fill="#C2CBBE" stroke="black" stroke-miterlimit="10" stroke-linecap="round" stroke-linejoin="round"/>
<path d="M657.941 364.105L631.104 379.682L605.382 364.803L632.15 349.226L657.941 364.105Z" fill="#797E76"/>
<path d="M657.941 364.105L631.104 379.682L623.367 384.223L588.653 364.105L623.158 343.987L632.15 349.226L657.941 364.105Z" stroke="black" stroke-miterlimit="10" stroke-linecap="round" stroke-linejoin="round"/>
<path d="M623.367 326.663L623.297 366.689L588.514 346.571L588.653 306.544L623.367 326.663Z" fill="#797E76" stroke="black" stroke-miterlimit="10" stroke-linecap="round" stroke-linejoin="round"/>
<path d="M623.367 326.663L657.941 306.544L657.801 346.571L623.297 366.689L623.367 326.663Z" fill="#AEB5AA" stroke="black" stroke-miterlimit="10" stroke-linecap="round" stroke-linejoin="round"/>
<path d="M657.941 306.544L631.104 322.122L623.367 326.663L588.653 306.544L623.158 286.426L632.15 291.665L657.941 306.544Z" fill="#C2CBBE" stroke="black" stroke-miterlimit="10" stroke-linecap="round" stroke-linejoin="round"/>
<path d="M657.941 306.544L631.104 322.122L605.382 307.243L632.15 291.665L657.941 306.544Z" fill="#797E76"/>
<path d="M657.941 306.544L631.104 322.122L623.367 326.663L588.653 306.544L623.158 286.426L632.15 291.665L657.941 306.544Z" stroke="black" stroke-miterlimit="10" stroke-linecap="round" stroke-linejoin="round"/>
<path d="M623.367 269.242L623.297 309.199L588.514 289.15L588.653 249.124L623.367 269.242Z" fill="#797E76" stroke="black" stroke-miterlimit="10" stroke-linecap="round" stroke-linejoin="round"/>
<path d="M623.367 269.242L657.941 249.124L657.801 289.15L623.297 309.199L623.367 269.242Z" fill="#AEB5AA" stroke="black" stroke-miterlimit="10" stroke-linecap="round" stroke-linejoin="round"/>
<path d="M588.653 249.124L623.158 229.005L657.941 249.124L623.367 269.242L588.653 249.124Z" fill="#C2CBBE" stroke="black" stroke-miterlimit="10" stroke-linecap="round" stroke-linejoin="round"/>
</g>
<g clip-path="url(#clip2)">
<path d="M1108 365.987L966.144 448L824.36 365.987L966.216 283.974L1108 365.987Z" fill="black"/>
<path d="M954.059 290.892L953.915 327.142L922.479 308.981L922.551 272.731L954.059 290.892Z" fill="#797E76" stroke="black" stroke-miterlimit="10" stroke-linecap="round" stroke-linejoin="round"/>
<path d="M954.059 290.892L985.279 272.731L985.207 308.981L953.915 327.142L954.059 290.892Z" fill="#AEB5AA" stroke="black" stroke-miterlimit="10" stroke-linecap="round" stroke-linejoin="round"/>
<path d="M985.279 272.731L961.036 286.857L954.059 290.892L922.551 272.731L953.843 254.498L961.972 259.255L985.279 272.731Z" fill="#C2CBBE" stroke="black" stroke-miterlimit="10" stroke-linecap="round" stroke-linejoin="round"/>
<path d="M985.279 272.731L961.036 286.857L937.729 273.38L961.972 259.255L985.279 272.731Z" fill="#797E76"/>
<path d="M985.279 272.731L961.036 286.857L954.059 290.892L922.551 272.731L953.843 254.498L961.972 259.255L985.279 272.731Z" stroke="black" stroke-miterlimit="10" stroke-linecap="round" stroke-linejoin="round"/>
<path d="M954.059 238.788L953.915 275.038L922.479 256.804L922.551 220.626L954.059 238.788Z" fill="#797E76" stroke="black" stroke-miterlimit="10" stroke-linecap="round" stroke-linejoin="round"/>
<path d="M954.059 238.788L985.279 220.626L985.207 256.804L953.915 275.038L954.059 238.788Z" fill="#AEB5AA" stroke="black" stroke-miterlimit="10" stroke-linecap="round" stroke-linejoin="round"/>
<path d="M985.279 220.626L961.036 234.752L954.059 238.788L922.551 220.626L953.843 202.393L961.972 207.15L985.279 220.626Z" fill="#C2CBBE" stroke="black" stroke-miterlimit="10" stroke-linecap="round" stroke-linejoin="round"/>
<path d="M985.279 220.626L961.036 234.752L937.729 221.275L961.972 207.15L985.279 220.626Z" fill="#797E76"/>
<path d="M985.279 220.626L961.036 234.752L954.059 238.788L922.551 220.626L953.843 202.393L961.972 207.15L985.279 220.626Z" stroke="black" stroke-miterlimit="10" stroke-linecap="round" stroke-linejoin="round"/>
<path d="M954.059 186.755L953.915 223.005L922.479 204.844L922.551 168.594L954.059 186.755Z" fill="#797E76" stroke="black" stroke-miterlimit="10" stroke-linecap="round" stroke-linejoin="round"/>
<path d="M954.059 186.755L985.279 168.594L985.207 204.844L953.915 223.005L954.059 186.755Z" fill="#AEB5AA" stroke="black" stroke-miterlimit="10" stroke-linecap="round" stroke-linejoin="round"/>
<path d="M922.551 168.593L953.843 150.36L985.279 168.593L954.059 186.755L922.551 168.593Z" fill="#C2CBBE" stroke="black" stroke-miterlimit="10" stroke-linecap="round" stroke-linejoin="round"/>
<path d="M938.449 195.619L927.946 201.745" stroke="black" stroke-width="5" stroke-miterlimit="10" stroke-linecap="round" stroke-linejoin="round"/>
<path d="M938.449 247.508L927.946 253.633" stroke="black" stroke-width="5" stroke-miterlimit="10" stroke-linecap="round" stroke-linejoin="round"/>
<path d="M938.449 299.396L927.946 305.522" stroke="black" stroke-width="5" stroke-miterlimit="10" stroke-linecap="round" stroke-linejoin="round"/>
<path d="M969.597 195.619L985.279 204.699" stroke="black" stroke-width="5" stroke-miterlimit="10" stroke-linecap="round" stroke-linejoin="round"/>
<path d="M969.597 247.796L985.279 256.876" stroke="black" stroke-width="5" stroke-miterlimit="10" stroke-linecap="round" stroke-linejoin="round"/>
<path d="M969.597 300.045L985.279 309.054" stroke="black" stroke-width="5" stroke-miterlimit="10" stroke-linecap="round" stroke-linejoin="round"/>
<path d="M1003.19 319.359L1003.05 355.609L971.611 337.376L971.683 301.126L1003.19 319.359Z" fill="#797E76" stroke="black" stroke-miterlimit="10" stroke-linecap="round" stroke-linejoin="round"/>
<path d="M1003.19 319.359L1034.48 301.126L1034.34 337.376L1003.05 355.609L1003.19 319.359Z" fill="#AEB5AA" stroke="black" stroke-miterlimit="10" stroke-linecap="round" stroke-linejoin="round"/>
<path d="M1034.48 301.126L1010.17 315.251L1003.19 319.359L971.683 301.126L1002.97 282.965L1011.18 287.649L1034.48 301.126Z" fill="#C2CBBE" stroke="black" stroke-miterlimit="10" stroke-linecap="round" stroke-linejoin="round"/>
<path d="M1034.48 301.126L1010.17 315.251L986.861 301.775L1011.18 287.649L1034.48 301.126Z" fill="#797E76"/>
<path d="M1034.48 301.126L1010.17 315.251L1003.19 319.359L971.683 301.126L1002.97 282.965L1011.18 287.649L1034.48 301.126Z" stroke="black" stroke-miterlimit="10" stroke-linecap="round" stroke-linejoin="round"/>
<path d="M1003.19 267.254L1003.05 303.504L971.611 285.271L971.683 249.021L1003.19 267.254Z" fill="#797E76" stroke="black" stroke-miterlimit="10" stroke-linecap="round" stroke-linejoin="round"/>
<path d="M1003.19 267.254L1034.48 249.021L1034.34 285.271L1003.05 303.504L1003.19 267.254Z" fill="#AEB5AA" stroke="black" stroke-miterlimit="10" stroke-linecap="round" stroke-linejoin="round"/>
<path d="M1034.48 249.021L1010.17 263.146L1003.19 267.254L971.683 249.021L1002.97 230.788L1011.18 235.544L1034.48 249.021Z" fill="#C2CBBE" stroke="black" stroke-miterlimit="10" stroke-linecap="round" stroke-linejoin="round"/>
<path d="M1034.48 249.021L1010.17 263.146L986.861 249.67L1011.18 235.544L1034.48 249.021Z" fill="#797E76"/>
<path d="M1034.48 249.021L1010.17 263.146L1003.19 267.254L971.683 249.021L1002.97 230.788L1011.18 235.544L1034.48 249.021Z" stroke="black" stroke-miterlimit="10" stroke-linecap="round" stroke-linejoin="round"/>
<path d="M1003.19 215.221L1003.05 251.471L971.611 233.238L971.683 196.988L1003.19 215.221Z" fill="#797E76" stroke="black" stroke-miterlimit="10" stroke-linecap="round" stroke-linejoin="round"/>
<path d="M1003.19 215.221L1034.48 196.988L1034.34 233.238L1003.05 251.471L1003.19 215.221Z" fill="#AEB5AA" stroke="black" stroke-miterlimit="10" stroke-linecap="round" stroke-linejoin="round"/>
<path d="M971.683 196.988L1002.97 178.755L1034.48 196.988L1003.19 215.221L971.683 196.988Z" fill="#C2CBBE" stroke="black" stroke-miterlimit="10" stroke-linecap="round" stroke-linejoin="round"/>
<path d="M987.652 224.086L977.078 230.139" stroke="black" stroke-width="5" stroke-miterlimit="10" stroke-linecap="round" stroke-linejoin="round"/>
<path d="M987.652 275.974L977.078 282.028" stroke="black" stroke-width="5" stroke-miterlimit="10" stroke-linecap="round" stroke-linejoin="round"/>
<path d="M987.652 327.791L977.078 333.917" stroke="black" stroke-width="5" stroke-miterlimit="10" stroke-linecap="round" stroke-linejoin="round"/>
<path d="M1018.8 224.086L1034.41 233.094" stroke="black" stroke-width="5" stroke-miterlimit="10" stroke-linecap="round" stroke-linejoin="round"/>
<path d="M1018.8 276.263L1034.41 285.271" stroke="black" stroke-width="5" stroke-miterlimit="10" stroke-linecap="round" stroke-linejoin="round"/>
<path d="M1018.8 328.44L1034.41 337.52" stroke="black" stroke-width="5" stroke-miterlimit="10" stroke-linecap="round" stroke-linejoin="round"/>
<path d="M1052.32 347.754L1052.25 384.004L1020.74 365.771L1020.81 329.593L1052.32 347.754Z" fill="#797E76" stroke="black" stroke-miterlimit="10" stroke-linecap="round" stroke-linejoin="round"/>
<path d="M1052.32 347.754L1083.61 329.593L1083.47 365.843L1052.25 384.004L1052.32 347.754Z" fill="#AEB5AA" stroke="black" stroke-miterlimit="10" stroke-linecap="round" stroke-linejoin="round"/>
<path d="M1083.61 329.593L1059.3 343.718L1052.32 347.754L1020.81 329.593L1052.11 311.36L1060.31 316.116L1083.61 329.593Z" fill="#C2CBBE" stroke="black" stroke-miterlimit="10" stroke-linecap="round" stroke-linejoin="round"/>
<path d="M1083.61 329.593L1059.3 343.718L1035.99 330.241L1060.31 316.116L1083.61 329.593Z" fill="#797E76"/>
<path d="M1083.61 329.593L1059.3 343.718L1052.32 347.754L1020.81 329.593L1052.11 311.36L1060.31 316.116L1083.61 329.593Z" stroke="black" stroke-miterlimit="10" stroke-linecap="round" stroke-linejoin="round"/>
<path d="M1052.32 295.649L1052.25 331.899L1020.74 313.666L1020.81 277.416L1052.32 295.649Z" fill="#797E76" stroke="black" stroke-miterlimit="10" stroke-linecap="round" stroke-linejoin="round"/>
<path d="M1052.32 295.649L1083.61 277.416L1083.47 313.666L1052.25 331.899L1052.32 295.649Z" fill="#AEB5AA" stroke="black" stroke-miterlimit="10" stroke-linecap="round" stroke-linejoin="round"/>
<path d="M1083.61 277.416L1059.3 291.541L1052.32 295.649L1020.81 277.416L1052.11 259.255L1060.31 263.939L1083.61 277.416Z" fill="#C2CBBE" stroke="black" stroke-miterlimit="10" stroke-linecap="round" stroke-linejoin="round"/>
<path d="M1083.61 277.416L1059.3 291.541L1035.99 278.064L1060.31 263.939L1083.61 277.416Z" fill="#797E76"/>
<path d="M1083.61 277.416L1059.3 291.541L1052.32 295.649L1020.81 277.416L1052.11 259.255L1060.31 263.939L1083.61 277.416Z" stroke="black" stroke-miterlimit="10" stroke-linecap="round" stroke-linejoin="round"/>
<path d="M1052.32 243.616L1052.25 279.866L1020.74 261.633L1020.81 225.455L1052.32 243.616Z" fill="#797E76" stroke="black" stroke-miterlimit="10" stroke-linecap="round" stroke-linejoin="round"/>
<path d="M1052.32 243.616L1083.61 225.455L1083.47 261.633L1052.25 279.866L1052.32 243.616Z" fill="#AEB5AA" stroke="black" stroke-miterlimit="10" stroke-linecap="round" stroke-linejoin="round"/>
<path d="M1020.81 225.455L1052.11 207.222L1083.61 225.455L1052.32 243.616L1020.81 225.455Z" fill="#C2CBBE" stroke="black" stroke-miterlimit="10" stroke-linecap="round" stroke-linejoin="round"/>
<path d="M1036.78 252.48L1026.21 258.606" stroke="black" stroke-width="5" stroke-miterlimit="10" stroke-linecap="round" stroke-linejoin="round"/>
<path d="M1036.78 304.369L1026.21 310.495" stroke="black" stroke-width="5" stroke-miterlimit="10" stroke-linecap="round" stroke-linejoin="round"/>
<path d="M1036.78 356.258L1026.21 362.384" stroke="black" stroke-width="5" stroke-miterlimit="10" stroke-linecap="round" stroke-linejoin="round"/>
<path d="M904.999 319.287L904.855 355.537L873.419 337.304L873.491 301.054L904.999 319.287Z" fill="#797E76" stroke="black" stroke-miterlimit="10" stroke-linecap="round" stroke-linejoin="round"/>
<path d="M904.999 319.287L936.291 301.054L936.147 337.304L904.855 355.537L904.999 319.287Z" fill="#AEB5AA" stroke="black" stroke-miterlimit="10" stroke-linecap="round" stroke-linejoin="round"/>
<path d="M936.291 301.054L911.977 315.179L904.999 319.287L873.491 301.054L904.783 282.893L912.984 287.577L936.291 301.054Z" fill="#C2CBBE" stroke="black" stroke-miterlimit="10" stroke-linecap="round" stroke-linejoin="round"/>
<path d="M936.291 301.054L911.977 315.179L888.67 301.703L912.984 287.577L936.291 301.054Z" fill="#797E76"/>
<path d="M936.291 301.054L911.977 315.179L904.999 319.287L873.491 301.054L904.783 282.893L912.984 287.577L936.291 301.054Z" stroke="black" stroke-miterlimit="10" stroke-linecap="round" stroke-linejoin="round"/>
<path d="M904.999 267.182L904.855 303.432L873.419 285.199L873.491 248.949L904.999 267.182Z" fill="#797E76" stroke="black" stroke-miterlimit="10" stroke-linecap="round" stroke-linejoin="round"/>
<path d="M904.999 267.182L936.291 248.949L936.147 285.199L904.855 303.432L904.999 267.182Z" fill="#AEB5AA" stroke="black" stroke-miterlimit="10" stroke-linecap="round" stroke-linejoin="round"/>
<path d="M936.291 248.949L911.977 263.074L904.999 267.182L873.491 248.949L904.783 230.788L912.984 235.472L936.291 248.949Z" fill="#C2CBBE" stroke="black" stroke-miterlimit="10" stroke-linecap="round" stroke-linejoin="round"/>
<path d="M936.291 248.949L911.977 263.074L888.67 249.598L912.984 235.472L936.291 248.949Z" fill="#797E76"/>
<path d="M936.291 248.949L911.977 263.074L904.999 267.182L873.491 248.949L904.783 230.788L912.984 235.472L936.291 248.949Z" stroke="black" stroke-miterlimit="10" stroke-linecap="round" stroke-linejoin="round"/>
<path d="M904.999 215.149L904.855 251.399L873.419 233.166L873.491 196.916L904.999 215.149Z" fill="#797E76" stroke="black" stroke-miterlimit="10" stroke-linecap="round" stroke-linejoin="round"/>
<path d="M904.999 215.149L936.291 196.916L936.147 233.166L904.855 251.399L904.999 215.149Z" fill="#AEB5AA" stroke="black" stroke-miterlimit="10" stroke-linecap="round" stroke-linejoin="round"/>
<path d="M873.491 196.916L904.783 178.755L936.291 196.916L904.999 215.149L873.491 196.916Z" fill="#C2CBBE" stroke="black" stroke-miterlimit="10" stroke-linecap="round" stroke-linejoin="round"/>
<path d="M889.461 224.014L878.887 230.139" stroke="black" stroke-width="5" stroke-miterlimit="10" stroke-linecap="round" stroke-linejoin="round"/>
<path d="M889.461 275.902L878.887 281.956" stroke="black" stroke-width="5" stroke-miterlimit="10" stroke-linecap="round" stroke-linejoin="round"/>
<path d="M889.461 327.791L878.887 333.845" stroke="black" stroke-width="5" stroke-miterlimit="10" stroke-linecap="round" stroke-linejoin="round"/>
<path d="M920.609 224.014L936.219 233.022" stroke="black" stroke-width="5" stroke-miterlimit="10" stroke-linecap="round" stroke-linejoin="round"/>
<path d="M920.609 276.191L936.219 285.271" stroke="black" stroke-width="5" stroke-miterlimit="10" stroke-linecap="round" stroke-linejoin="round"/>
<path d="M920.609 328.368L936.219 337.448" stroke="black" stroke-width="5" stroke-miterlimit="10" stroke-linecap="round" stroke-linejoin="round"/>
<path d="M954.131 347.754L954.059 383.932L922.551 365.771L922.623 329.521L954.131 347.754Z" fill="#797E76" stroke="black" stroke-miterlimit="10" stroke-linecap="round" stroke-linejoin="round"/>
<path d="M954.131 347.754L985.422 329.521L985.279 365.771L954.059 383.932L954.131 347.754Z" fill="#AEB5AA" stroke="black" stroke-miterlimit="10" stroke-linecap="round" stroke-linejoin="round"/>
<path d="M985.422 329.521L961.108 343.646L954.131 347.754L922.623 329.521L953.915 311.287L962.116 316.044L985.422 329.521Z" fill="#C2CBBE" stroke="black" stroke-miterlimit="10" stroke-linecap="round" stroke-linejoin="round"/>
<path d="M985.423 329.521L961.108 343.646L937.801 330.169L962.116 316.044L985.423 329.521Z" fill="#797E76"/>
<path d="M985.422 329.521L961.108 343.646L954.131 347.754L922.623 329.521L953.915 311.287L962.116 316.044L985.422 329.521Z" stroke="black" stroke-miterlimit="10" stroke-linecap="round" stroke-linejoin="round"/>
<path d="M954.131 295.577L954.059 331.827L922.551 313.666L922.623 277.416L954.131 295.577Z" fill="#797E76" stroke="black" stroke-miterlimit="10" stroke-linecap="round" stroke-linejoin="round"/>
<path d="M954.131 295.577L985.422 277.416L985.279 313.666L954.059 331.827L954.131 295.577Z" fill="#AEB5AA" stroke="black" stroke-miterlimit="10" stroke-linecap="round" stroke-linejoin="round"/>
<path d="M985.422 277.416L961.108 291.541L954.131 295.577L922.623 277.416L953.915 259.183L962.116 263.939L985.422 277.416Z" fill="#C2CBBE" stroke="black" stroke-miterlimit="10" stroke-linecap="round" stroke-linejoin="round"/>
<path d="M985.423 277.416L961.108 291.541L937.801 278.064L962.116 263.939L985.423 277.416Z" fill="#797E76"/>
<path d="M985.422 277.416L961.108 291.541L954.131 295.577L922.623 277.416L953.915 259.183L962.116 263.939L985.422 277.416Z" stroke="black" stroke-miterlimit="10" stroke-linecap="round" stroke-linejoin="round"/>
<path d="M954.131 243.544L954.059 279.794L922.551 261.633L922.623 225.383L954.131 243.544Z" fill="#797E76" stroke="black" stroke-miterlimit="10" stroke-linecap="round" stroke-linejoin="round"/>
<path d="M954.131 243.544L985.422 225.383L985.279 261.633L954.059 279.794L954.131 243.544Z" fill="#AEB5AA" stroke="black" stroke-miterlimit="10" stroke-linecap="round" stroke-linejoin="round"/>
<path d="M922.623 225.383L953.915 207.15L985.422 225.383L954.131 243.544L922.623 225.383Z" fill="#C2CBBE" stroke="black" stroke-miterlimit="10" stroke-linecap="round" stroke-linejoin="round"/>
<path d="M938.593 252.408L928.018 258.534" stroke="black" stroke-width="5" stroke-miterlimit="10" stroke-linecap="round" stroke-linejoin="round"/>
<path d="M938.593 304.297L928.018 310.423" stroke="black" stroke-width="5" stroke-miterlimit="10" stroke-linecap="round" stroke-linejoin="round"/>
<path d="M938.593 356.186L928.018 362.311" stroke="black" stroke-width="5" stroke-miterlimit="10" stroke-linecap="round" stroke-linejoin="round"/>
<path d="M969.741 252.408L985.351 261.489" stroke="black" stroke-width="5" stroke-miterlimit="10" stroke-linecap="round" stroke-linejoin="round"/>
<path d="M969.741 304.585L985.351 313.666" stroke="black" stroke-width="5" stroke-miterlimit="10" stroke-linecap="round" stroke-linejoin="round"/>
<path d="M969.741 356.834L985.351 365.843" stroke="black" stroke-width="5" stroke-miterlimit="10" stroke-linecap="round" stroke-linejoin="round"/>
<path d="M1003.26 376.149L1003.19 412.399L971.683 394.165L971.827 357.915L1003.26 376.149Z" fill="#797E76" stroke="black" stroke-miterlimit="10" stroke-linecap="round" stroke-linejoin="round"/>
<path d="M1003.26 376.149L1034.55 357.915L1034.48 394.165L1003.19 412.399L1003.26 376.149Z" fill="#AEB5AA" stroke="black" stroke-miterlimit="10" stroke-linecap="round" stroke-linejoin="round"/>
<path d="M1034.55 357.915L1010.31 372.041L1003.26 376.148L971.827 357.915L1003.05 339.754L1011.25 344.439L1034.55 357.915Z" fill="#C2CBBE" stroke="black" stroke-miterlimit="10" stroke-linecap="round" stroke-linejoin="round"/>
<path d="M1034.55 357.915L1010.31 372.041L987.005 358.564L1011.25 344.439L1034.55 357.915Z" fill="#797E76"/>
<path d="M1034.55 357.915L1010.31 372.041L1003.26 376.148L971.827 357.915L1003.05 339.754L1011.25 344.439L1034.55 357.915Z" stroke="black" stroke-miterlimit="10" stroke-linecap="round" stroke-linejoin="round"/>
<path d="M1003.26 324.044L1003.19 360.294L971.683 342.06L971.827 305.81L1003.26 324.044Z" fill="#797E76" stroke="black" stroke-miterlimit="10" stroke-linecap="round" stroke-linejoin="round"/>
<path d="M1003.26 324.044L1034.55 305.81L1034.48 342.06L1003.19 360.294L1003.26 324.044Z" fill="#AEB5AA" stroke="black" stroke-miterlimit="10" stroke-linecap="round" stroke-linejoin="round"/>
<path d="M1034.55 305.81L1010.31 319.936L1003.26 324.044L971.827 305.81L1003.05 287.577L1011.25 292.334L1034.55 305.81Z" fill="#C2CBBE" stroke="black" stroke-miterlimit="10" stroke-linecap="round" stroke-linejoin="round"/>
<path d="M1034.55 305.81L1010.31 319.936L987.005 306.459L1011.25 292.334L1034.55 305.81Z" fill="#797E76"/>
<path d="M1034.55 305.81L1010.31 319.936L1003.26 324.044L971.827 305.81L1003.05 287.577L1011.25 292.334L1034.55 305.81Z" stroke="black" stroke-miterlimit="10" stroke-linecap="round" stroke-linejoin="round"/>
<path d="M1003.26 272.011L1003.19 308.261L971.683 290.028L971.827 253.777L1003.26 272.011Z" fill="#797E76" stroke="black" stroke-miterlimit="10" stroke-linecap="round" stroke-linejoin="round"/>
<path d="M1003.26 272.011L1034.55 253.777L1034.48 290.028L1003.19 308.261L1003.26 272.011Z" fill="#AEB5AA" stroke="black" stroke-miterlimit="10" stroke-linecap="round" stroke-linejoin="round"/>
<path d="M971.827 253.778L1003.05 235.616L1034.55 253.778L1003.26 272.011L971.827 253.778Z" fill="#C2CBBE" stroke="black" stroke-miterlimit="10" stroke-linecap="round" stroke-linejoin="round"/>
<path d="M987.724 280.875L977.15 286.929" stroke="black" stroke-width="5" stroke-miterlimit="10" stroke-linecap="round" stroke-linejoin="round"/>
<path d="M987.724 332.764L977.15 338.817" stroke="black" stroke-width="5" stroke-miterlimit="10" stroke-linecap="round" stroke-linejoin="round"/>
<path d="M987.724 384.652L977.15 390.706" stroke="black" stroke-width="5" stroke-miterlimit="10" stroke-linecap="round" stroke-linejoin="round"/>
<path d="M855.939 347.682L855.867 383.932L824.36 365.699L824.432 329.449L855.939 347.682Z" fill="#797E76" stroke="black" stroke-miterlimit="10" stroke-linecap="round" stroke-linejoin="round"/>
<path d="M855.939 347.682L887.231 329.449L887.087 365.699L855.867 383.932L855.939 347.682Z" fill="#AEB5AA" stroke="black" stroke-miterlimit="10" stroke-linecap="round" stroke-linejoin="round"/>
<path d="M887.231 329.449L862.989 343.574L855.939 347.682L824.432 329.449L855.723 311.215L863.924 315.972L887.231 329.449Z" fill="#C2CBBE" stroke="black" stroke-miterlimit="10" stroke-linecap="round" stroke-linejoin="round"/>
<path d="M887.231 329.449L862.989 343.574L839.61 330.097L863.924 315.972L887.231 329.449Z" fill="#797E76"/>
<path d="M887.231 329.449L862.989 343.574L855.939 347.682L824.432 329.449L855.723 311.215L863.924 315.972L887.231 329.449Z" stroke="black" stroke-miterlimit="10" stroke-linecap="round" stroke-linejoin="round"/>
<path d="M855.939 295.577L855.867 331.755L824.36 313.594L824.432 277.344L855.939 295.577Z" fill="#797E76" stroke="black" stroke-miterlimit="10" stroke-linecap="round" stroke-linejoin="round"/>
<path d="M855.939 295.577L887.231 277.344L887.087 313.594L855.867 331.755L855.939 295.577Z" fill="#AEB5AA" stroke="black" stroke-miterlimit="10" stroke-linecap="round" stroke-linejoin="round"/>
<path d="M887.231 277.344L862.989 291.469L855.939 295.577L824.432 277.344L855.723 259.111L863.924 263.867L887.231 277.344Z" fill="#C2CBBE" stroke="black" stroke-miterlimit="10" stroke-linecap="round" stroke-linejoin="round"/>
<path d="M887.231 277.344L862.989 291.469L839.61 277.992L863.924 263.867L887.231 277.344Z" fill="#797E76"/>
<path d="M887.231 277.344L862.989 291.469L855.939 295.577L824.432 277.344L855.723 259.111L863.924 263.867L887.231 277.344Z" stroke="black" stroke-miterlimit="10" stroke-linecap="round" stroke-linejoin="round"/>
<path d="M855.939 243.544L855.867 279.794L824.36 261.561L824.432 225.311L855.939 243.544Z" fill="#797E76" stroke="black" stroke-miterlimit="10" stroke-linecap="round" stroke-linejoin="round"/>
<path d="M855.939 243.544L887.231 225.311L887.087 261.561L855.867 279.794L855.939 243.544Z" fill="#AEB5AA" stroke="black" stroke-miterlimit="10" stroke-linecap="round" stroke-linejoin="round"/>
<path d="M824.432 225.311L855.723 207.078L887.231 225.311L855.939 243.544L824.432 225.311Z" fill="#C2CBBE" stroke="black" stroke-miterlimit="10" stroke-linecap="round" stroke-linejoin="round"/>
<path d="M871.549 252.336L887.159 261.417" stroke="black" stroke-width="5" stroke-miterlimit="10" stroke-linecap="round" stroke-linejoin="round"/>
<path d="M871.549 304.585L887.159 313.594" stroke="black" stroke-width="5" stroke-miterlimit="10" stroke-linecap="round" stroke-linejoin="round"/>
<path d="M871.549 356.762L887.159 365.843" stroke="black" stroke-width="5" stroke-miterlimit="10" stroke-linecap="round" stroke-linejoin="round"/>
<path d="M905.071 376.076L904.999 412.326L873.491 394.093L873.635 357.843L905.071 376.076Z" fill="#797E76" stroke="black" stroke-miterlimit="10" stroke-linecap="round" stroke-linejoin="round"/>
<path d="M905.071 376.076L936.363 357.915L936.291 394.093L904.999 412.327L905.071 376.076Z" fill="#AEB5AA" stroke="black" stroke-miterlimit="10" stroke-linecap="round" stroke-linejoin="round"/>
<path d="M936.363 357.843L912.121 372.041L905.071 376.076L873.635 357.843L904.855 339.682L913.056 344.367L936.363 357.843Z" fill="#C2CBBE" stroke="black" stroke-miterlimit="10" stroke-linecap="round" stroke-linejoin="round"/>
<path d="M936.363 357.843L912.121 372.041L888.814 358.492L913.056 344.367L936.363 357.843Z" fill="#797E76"/>
<path d="M936.363 357.843L912.121 372.041L905.071 376.076L873.635 357.843L904.855 339.682L913.056 344.367L936.363 357.843Z" stroke="black" stroke-miterlimit="10" stroke-linecap="round" stroke-linejoin="round"/>
<path d="M905.071 323.972L904.999 360.222L873.491 341.988L873.635 305.738L905.071 323.972Z" fill="#797E76" stroke="black" stroke-miterlimit="10" stroke-linecap="round" stroke-linejoin="round"/>
<path d="M905.071 323.972L936.363 305.738L936.291 341.988L904.999 360.222L905.071 323.972Z" fill="#AEB5AA" stroke="black" stroke-miterlimit="10" stroke-linecap="round" stroke-linejoin="round"/>
<path d="M936.363 305.738L912.121 319.864L905.071 323.971L873.635 305.738L904.855 287.577L913.056 292.262L936.363 305.738Z" fill="#C2CBBE" stroke="black" stroke-miterlimit="10" stroke-linecap="round" stroke-linejoin="round"/>
<path d="M936.363 305.738L912.121 319.864L888.814 306.387L913.056 292.262L936.363 305.738Z" fill="#797E76"/>
<path d="M936.363 305.738L912.121 319.864L905.071 323.971L873.635 305.738L904.855 287.577L913.056 292.262L936.363 305.738Z" stroke="black" stroke-miterlimit="10" stroke-linecap="round" stroke-linejoin="round"/>
<path d="M905.071 271.939L904.999 308.189L873.491 289.956L873.635 253.706L905.071 271.939Z" fill="#797E76" stroke="black" stroke-miterlimit="10" stroke-linecap="round" stroke-linejoin="round"/>
<path d="M905.071 271.939L936.363 253.706L936.291 289.956L904.999 308.189L905.071 271.939Z" fill="#AEB5AA" stroke="black" stroke-miterlimit="10" stroke-linecap="round" stroke-linejoin="round"/>
<path d="M873.635 253.705L904.855 235.544L936.363 253.705L905.071 271.939L873.635 253.705Z" fill="#C2CBBE" stroke="black" stroke-miterlimit="10" stroke-linecap="round" stroke-linejoin="round"/>
<path d="M920.681 280.803L936.363 289.884" stroke="black" stroke-width="5" stroke-miterlimit="10" stroke-linecap="round" stroke-linejoin="round"/>
<path d="M920.681 332.98L936.363 342.061" stroke="black" stroke-width="5" stroke-miterlimit="10" stroke-linecap="round" stroke-linejoin="round"/>
<path d="M920.681 385.157L936.363 394.238" stroke="black" stroke-width="5" stroke-miterlimit="10" stroke-linecap="round" stroke-linejoin="round"/>
<path d="M954.203 404.543L954.131 440.721L922.623 422.56L922.767 386.31L954.203 404.543Z" fill="#797E76" stroke="black" stroke-miterlimit="10" stroke-linecap="round" stroke-linejoin="round"/>
<path d="M954.203 404.543L985.494 386.31L985.422 422.56L954.131 440.721L954.203 404.543Z" fill="#AEB5AA" stroke="black" stroke-miterlimit="10" stroke-linecap="round" stroke-linejoin="round"/>
<path d="M985.494 386.31L961.252 400.435L954.203 404.543L922.767 386.31L953.987 368.077L962.187 372.833L985.494 386.31Z" fill="#C2CBBE" stroke="black" stroke-miterlimit="10" stroke-linecap="round" stroke-linejoin="round"/>
<path d="M985.494 386.31L961.252 400.435L937.945 386.959L962.187 372.833L985.494 386.31Z" fill="#797E76"/>
<path d="M985.494 386.31L961.252 400.435L954.203 404.543L922.767 386.31L953.987 368.077L962.187 372.833L985.494 386.31Z" stroke="black" stroke-miterlimit="10" stroke-linecap="round" stroke-linejoin="round"/>
<path d="M954.203 352.366L954.131 388.616L922.623 370.455L922.767 334.205L954.203 352.366Z" fill="#797E76" stroke="black" stroke-miterlimit="10" stroke-linecap="round" stroke-linejoin="round"/>
<path d="M954.203 352.366L985.494 334.205L985.422 370.455L954.131 388.616L954.203 352.366Z" fill="#AEB5AA" stroke="black" stroke-miterlimit="10" stroke-linecap="round" stroke-linejoin="round"/>
<path d="M985.494 334.205L961.252 348.33L954.203 352.366L922.767 334.205L953.987 315.972L962.187 320.728L985.494 334.205Z" fill="#C2CBBE" stroke="black" stroke-miterlimit="10" stroke-linecap="round" stroke-linejoin="round"/>
<path d="M985.494 334.205L961.252 348.33L937.945 334.854L962.187 320.728L985.494 334.205Z" fill="#797E76"/>
<path d="M985.494 334.205L961.252 348.33L954.203 352.366L922.767 334.205L953.987 315.972L962.187 320.728L985.494 334.205Z" stroke="black" stroke-miterlimit="10" stroke-linecap="round" stroke-linejoin="round"/>
<path d="M954.203 300.333L954.131 336.583L922.623 318.422L922.767 282.172L954.203 300.333Z" fill="#797E76" stroke="black" stroke-miterlimit="10" stroke-linecap="round" stroke-linejoin="round"/>
<path d="M954.203 300.333L985.494 282.172L985.422 318.422L954.131 336.583L954.203 300.333Z" fill="#AEB5AA" stroke="black" stroke-miterlimit="10" stroke-linecap="round" stroke-linejoin="round"/>
<path d="M922.767 282.172L954.059 263.939L985.494 282.172L954.203 300.333L922.767 282.172Z" fill="#C2CBBE" stroke="black" stroke-miterlimit="10" stroke-linecap="round" stroke-linejoin="round"/>
</g>
<rect x="1" y="1" width="1152" height="630" stroke="black"/>
<defs>
<clipPath id="clip0">
<rect width="87" height="89" fill="white" transform="translate(150 255)"/>
</clipPath>
<clipPath id="clip1">
<rect width="185" height="260" fill="white" transform="translate(485 169)"/>
</clipPath>
<clipPath id="clip2">
<rect width="284" height="298" fill="white" transform="translate(824 150)"/>
</clipPath>
</defs>
</svg>
