<?xml version="1.0" encoding="utf-8"?>
<!-- Generator: Adobe Illustrator 24.2.1, SVG Export Plug-In . SVG Version: 6.00 Build 0)  -->
<svg version="1.1" id="Layer_7" xmlns="http://www.w3.org/2000/svg" xmlns:xlink="http://www.w3.org/1999/xlink" x="0px" y="0px"
	 viewBox="0 0 1200 900" style="enable-background:new 0 0 1200 900;" xml:space="preserve">
<style type="text/css">
	.st0{fill:#BFE3E8;stroke:#000000;stroke-width:0.95;stroke-miterlimit:10;}
	.st1{fill:#B3A5D6;stroke:#000000;stroke-width:0.95;stroke-miterlimit:10;}
	.st2{stroke:#000000;stroke-linecap:round;stroke-linejoin:round;}
	.st3{fill:#94D0D8;stroke:#000000;stroke-linecap:round;stroke-linejoin:round;}
	.st4{fill:#6CA7AF;stroke:#000000;stroke-linecap:round;stroke-linejoin:round;}
	.st5{fill:#A6D8DF;stroke:#000000;stroke-linecap:round;stroke-linejoin:round;}
	.st6{fill:#D7E6FF;stroke:#000000;stroke-linecap:round;stroke-linejoin:round;}
	.st7{fill:#A1ADBF;stroke:#000000;stroke-linecap:round;stroke-linejoin:round;}
	.st8{fill:#DFEBFF;stroke:#000000;stroke-linecap:round;stroke-linejoin:round;}
	.st9{fill:#FFFFFF;stroke:#000000;stroke-miterlimit:10;}
	.st10{fill:#5032A0;stroke:#000000;stroke-linecap:round;stroke-linejoin:round;}
	.st11{fill:#432A85;stroke:#000000;stroke-linecap:round;stroke-linejoin:round;}
	.st12{fill:#7E68BA;stroke:#000000;stroke-linecap:round;stroke-linejoin:round;}
	.st13{fill:none;}
	.st14{font-family:'NibPro-Regular';}
	.st15{font-size:25.686px;}
	.st16{font-family:'CapsuleSans-Bold';}
	.st17{font-size:20px;}
</style>
<rect x="56" y="130" class="st0" width="544" height="640"/>
<rect x="600" y="130" class="st1" width="544" height="640"/>
<polygon class="st2" points="166.2,523 330.4,427.6 487,518 322.9,613.4 "/>
<g>
	<polygon class="st3" points="323,587.9 323,603.8 166,513.1 166,497.3 	"/>
	<polygon class="st4" points="323,587.8 487,492.5 487,508.3 323,603.6 	"/>
	<polygon class="st5" points="166.2,497.4 330.4,402 487,492.4 322.9,587.8 	"/>
</g>
<g>
	<polygon class="st6" points="324,413.8 323.9,445.8 296,429.7 296.1,397.6 	"/>
	<polygon class="st7" points="324.1,414 351,398.3 350.9,429.5 324,445.1 	"/>
	<polygon class="st8" points="296.7,397.9 324.1,382 351.6,398 324.3,413.9 	"/>
</g>
<g>
	<polygon class="st6" points="359,434 358.9,466 331,449.9 331.1,417.9 	"/>
	<polygon class="st7" points="359.1,434.2 386,418.6 385.9,449.7 359,465.3 	"/>
	<polygon class="st8" points="331.8,418.2 359.1,402.3 386.7,418.2 359.3,434.1 	"/>
</g>
<g>
	<polygon class="st6" points="394,454.2 393.9,486.2 366,470.1 366.1,438.1 	"/>
	<polygon class="st7" points="394.1,454.4 421,438.8 420.9,469.9 394,485.5 	"/>
	<polygon class="st8" points="366.8,438.4 394.1,422.5 421.7,438.4 394.3,454.3 	"/>
</g>
<g>
	<polygon class="st6" points="430,474.4 429.9,506.5 402,490.3 402.1,458.3 	"/>
	<polygon class="st7" points="429.1,474.6 456,459 455.9,490.1 429,505.8 	"/>
	<polygon class="st8" points="401.8,458.6 429.1,442.7 456.7,458.6 429.3,474.5 	"/>
</g>
<g>
	<polygon class="st6" points="289,434.2 288.9,466.3 261,450.2 261.1,418.1 	"/>
	<polygon class="st7" points="289.1,434.5 316,418.8 315.9,450 289,465.6 	"/>
	<polygon class="st8" points="261.2,418.4 288.6,402.5 316.1,418.4 288.8,434.4 	"/>
</g>
<g>
	<polygon class="st6" points="324,454.5 323.9,486.5 296,470.4 296.1,438.4 	"/>
	<polygon class="st7" points="324.1,454.7 351,439 350.9,470.2 324,485.8 	"/>
	<polygon class="st8" points="296.2,438.6 323.6,422.8 351.2,438.7 323.8,454.6 	"/>
</g>
<g>
	<polygon class="st6" points="359,474.7 358.9,506.7 331,490.6 331.1,458.6 	"/>
	<polygon class="st7" points="359.1,474.9 386,459.3 385.9,490.4 359,506 	"/>
	<polygon class="st8" points="331.3,458.9 358.6,443 386.2,458.9 358.8,474.8 	"/>
</g>
<g>
	<polygon class="st6" points="394,494.9 393.9,526.9 366,510.8 366.1,478.8 	"/>
	<polygon class="st7" points="394.1,495.1 421,479.5 420.9,510.6 394,526.2 	"/>
	<polygon class="st8" points="366.3,479.1 393.6,463.2 421.2,479.1 393.8,495 	"/>
</g>
<g>
	<polygon class="st6" points="253,454.7 252.9,486.8 225,470.7 225.1,438.6 	"/>
	<polygon class="st7" points="253.1,455 280,439.3 279.9,470.5 253,486.1 	"/>
	<polygon class="st8" points="225.7,438.9 253.1,423 280.7,438.9 253.3,454.8 	"/>
</g>
<g>
	<polygon class="st6" points="288,475 287.9,507 260,490.9 260.1,458.8 	"/>
	<polygon class="st7" points="288.1,475.2 315,459.5 314.9,490.7 288,506.3 	"/>
	<polygon class="st8" points="260.8,459.1 288.1,443.2 315.7,459.1 288.3,475.1 	"/>
</g>
<g>
	<polygon class="st6" points="323,495.2 322.9,527.2 295,511.1 295.1,479 	"/>
	<polygon class="st7" points="323.1,495.4 350,479.8 349.9,510.9 323,526.5 	"/>
	<polygon class="st8" points="295.8,479.4 323.1,463.5 350.7,479.4 323.3,495.3 	"/>
</g>
<g>
	<polygon class="st6" points="359,515.4 358.9,547.4 331,531.3 331.1,499.3 	"/>
	<polygon class="st7" points="358.1,515.6 385,500 384.9,531.1 358,546.7 	"/>
	<polygon class="st8" points="330.8,499.6 358.1,483.7 385.7,499.6 358.3,515.5 	"/>
</g>
<g>
	<polygon class="st6" points="218,475.2 217.9,507.3 190,491.2 190.1,459.1 	"/>
	<polygon class="st7" points="218.1,475.5 245,459.8 244.9,491 218,506.6 	"/>
	<polygon class="st8" points="190.2,459.4 217.6,443.5 245.2,459.4 217.8,475.3 	"/>
</g>
<g>
	<polygon class="st6" points="253,495.5 252.9,527.5 225,511.4 225.1,479.3 	"/>
	<polygon class="st7" points="253.1,495.7 280,480 279.9,511.2 253,526.8 	"/>
	<polygon class="st8" points="225.2,479.6 252.6,463.7 280.2,479.6 252.8,495.5 	"/>
</g>
<g>
	<polygon class="st6" points="288,515.7 287.9,547.7 260,531.6 260.1,499.5 	"/>
	<polygon class="st7" points="288.1,515.9 315,500.2 314.9,531.4 288,547 	"/>
	<polygon class="st8" points="260.3,499.9 287.6,484 315.2,499.9 287.8,515.8 	"/>
</g>
<g>
	<polygon class="st6" points="323,535.9 322.9,567.9 295,551.8 295.1,519.8 	"/>
	<polygon class="st7" points="323.1,536.1 350,520.5 349.9,551.6 323,567.2 	"/>
	<polygon class="st8" points="295.3,520.1 322.6,504.2 350.2,520.1 322.8,536 	"/>
</g>
<g>
	<polygon class="st6" points="324,375.5 323.9,407.6 296,391.5 296.1,359.4 	"/>
	<polygon class="st7" points="324.1,375.8 351,360.1 350.9,391.3 324,406.9 	"/>
	<polygon class="st8" points="296.7,359.8 324.1,343.8 351.6,359.8 324.3,375.6 	"/>
</g>
<g>
	<polygon class="st6" points="359,395.8 358.9,427.8 331,411.7 331.1,379.6 	"/>
	<polygon class="st7" points="359.1,396 386,380.4 385.9,411.5 359,427.1 	"/>
	<polygon class="st8" points="331.8,380 359.1,364.1 386.7,380 359.3,395.9 	"/>
</g>
<g>
	<polygon class="st6" points="394,416 393.9,448 366,431.9 366.1,399.9 	"/>
	<polygon class="st7" points="394.1,416.2 421,400.6 420.9,431.7 394,447.3 	"/>
	<polygon class="st8" points="366.8,400.2 394.1,384.3 421.7,400.2 394.3,416.1 	"/>
</g>
<g>
	<polygon class="st6" points="430,436.2 429.9,468.2 402,452.1 402.1,420.1 	"/>
	<polygon class="st7" points="429.1,436.4 456,420.8 455.9,451.9 429,467.5 	"/>
	<polygon class="st8" points="401.8,420.4 429.1,404.5 456.7,420.4 429.3,436.3 	"/>
</g>
<g>
	<polygon class="st6" points="289,396 288.9,428.1 261,412 261.1,379.9 	"/>
	<polygon class="st7" points="289.1,396.3 316,380.6 315.9,411.8 289,427.4 	"/>
	<polygon class="st8" points="261.2,380.2 288.6,364.3 316.1,380.2 288.8,396.1 	"/>
</g>
<g>
	<polygon class="st6" points="324,416.3 323.9,448.3 296,432.2 296.1,400.1 	"/>
	<polygon class="st7" points="324.1,416.5 351,400.9 350.9,432 324,447.6 	"/>
	<polygon class="st8" points="296.2,400.5 323.6,384.5 351.2,400.5 323.8,416.4 	"/>
</g>
<g>
	<polygon class="st6" points="359,436.5 358.9,468.5 331,452.4 331.1,420.4 	"/>
	<polygon class="st7" points="359.1,436.7 386,421.1 385.9,452.2 359,467.8 	"/>
	<polygon class="st8" points="331.3,420.7 358.6,404.8 386.2,420.7 358.8,436.6 	"/>
</g>
<g>
	<polygon class="st6" points="394,456.7 393.9,488.7 366,472.6 366.1,440.6 	"/>
	<polygon class="st7" points="394.1,456.9 421,441.3 420.9,472.4 394,488 	"/>
	<polygon class="st8" points="366.3,440.9 393.6,425 421.2,440.9 393.8,456.8 	"/>
</g>
<g>
	<polygon class="st6" points="253,416.5 252.9,448.6 225,432.5 225.1,400.4 	"/>
	<polygon class="st7" points="253.1,416.8 280,401.1 279.9,432.2 253,447.9 	"/>
	<polygon class="st8" points="225.7,400.7 253.1,384.8 280.7,400.7 253.3,416.6 	"/>
</g>
<g>
	<polygon class="st6" points="288,436.8 287.9,468.8 260,452.7 260.1,420.6 	"/>
	<polygon class="st7" points="288.1,437 315,421.4 314.9,452.5 288,468.1 	"/>
	<polygon class="st8" points="260.8,421 288.1,405 315.7,421 288.3,436.9 	"/>
</g>
<g>
	<polygon class="st6" points="323,457 322.9,489 295,472.9 295.1,440.9 	"/>
	<polygon class="st7" points="323.1,457.2 350,441.6 349.9,472.7 323,488.3 	"/>
	<polygon class="st8" points="295.8,441.2 323.1,425.3 350.7,441.2 323.3,457.1 	"/>
</g>
<g>
	<polygon class="st6" points="359,477.2 358.9,509.2 331,493.1 331.1,461.1 	"/>
	<polygon class="st7" points="358.1,477.4 385,461.8 384.9,492.9 358,508.5 	"/>
	<polygon class="st8" points="330.8,461.4 358.1,445.5 385.7,461.4 358.3,477.3 	"/>
</g>
<g>
	<polygon class="st6" points="218,437 217.9,469.1 190,453 190.1,420.9 	"/>
	<polygon class="st7" points="218.1,437.3 245,421.6 244.9,452.8 218,468.4 	"/>
	<polygon class="st8" points="190.2,421.2 217.6,405.3 245.2,421.2 217.8,437.1 	"/>
</g>
<g>
	<polygon class="st6" points="253,457.2 252.9,489.3 225,473.2 225.1,441.1 	"/>
	<polygon class="st7" points="253.1,457.5 280,441.8 279.9,473 253,488.6 	"/>
	<polygon class="st8" points="225.2,441.4 252.6,425.5 280.2,441.5 252.8,457.4 	"/>
</g>
<g>
	<polygon class="st6" points="288,477.5 287.9,509.5 260,493.4 260.1,461.4 	"/>
	<polygon class="st7" points="288.1,477.7 315,462.1 314.9,493.2 288,508.8 	"/>
	<polygon class="st8" points="260.3,461.7 287.6,445.8 315.2,461.7 287.8,477.6 	"/>
</g>
<g>
	<polygon class="st6" points="323,497.7 322.9,529.7 295,513.6 295.1,481.6 	"/>
	<polygon class="st7" points="323.1,497.9 350,482.3 349.9,513.4 323,529 	"/>
	<polygon class="st8" points="295.3,481.9 322.6,466 350.2,481.9 322.8,497.8 	"/>
</g>
<g>
	<polygon class="st6" points="324,337.4 323.9,369.4 296,353.3 296.1,321.2 	"/>
	<polygon class="st7" points="324.1,337.6 351,321.9 350.9,353.1 324,368.7 	"/>
	<polygon class="st8" points="296.7,321.5 324.1,305.6 351.6,321.5 324.3,337.5 	"/>
</g>
<g>
	<polygon class="st6" points="359,357.6 358.9,389.6 331,373.5 331.1,341.5 	"/>
	<polygon class="st7" points="359.1,357.8 386,342.2 385.9,373.3 359,388.9 	"/>
	<polygon class="st8" points="331.8,341.8 359.1,325.9 386.7,341.8 359.3,357.7 	"/>
</g>
<g>
	<polygon class="st6" points="394,377.8 393.9,409.8 366,393.7 366.1,361.7 	"/>
	<polygon class="st7" points="394.1,378 421,362.4 420.9,393.5 394,409.1 	"/>
	<polygon class="st8" points="366.8,362 394.1,346.1 421.7,362 394.3,377.9 	"/>
</g>
<g>
	<polygon class="st6" points="430,398 429.9,430 402,413.9 402.1,381.9 	"/>
	<polygon class="st7" points="429.1,398.2 456,382.6 455.9,413.7 429,429.4 	"/>
	<polygon class="st8" points="401.8,382.2 429.1,366.3 456.7,382.2 429.3,398.1 	"/>
</g>
<g>
	<polygon class="st6" points="289,357.8 288.9,389.9 261,373.8 261.1,341.7 	"/>
	<polygon class="st7" points="289.1,358.1 316,342.4 315.9,373.6 289,389.2 	"/>
	<polygon class="st8" points="261.2,342 288.6,326.1 316.1,342 288.8,358 	"/>
</g>
<g>
	<polygon class="st6" points="324,378.1 323.9,410.1 296,394 296.1,361.9 	"/>
	<polygon class="st7" points="324.1,378.3 351,362.6 350.9,393.8 324,409.4 	"/>
	<polygon class="st8" points="296.2,362.2 323.6,346.4 351.2,362.3 323.8,378.2 	"/>
</g>
<g>
	<polygon class="st6" points="359,398.3 358.9,430.3 331,414.2 331.1,382.2 	"/>
	<polygon class="st7" points="359.1,398.5 386,382.9 385.9,414 359,429.6 	"/>
	<polygon class="st8" points="331.3,382.5 358.6,366.6 386.2,382.5 358.8,398.4 	"/>
</g>
<g>
	<polygon class="st6" points="394,418.5 393.9,450.5 366,434.4 366.1,402.4 	"/>
	<polygon class="st7" points="394.1,418.7 421,403.1 420.9,434.2 394,449.8 	"/>
	<polygon class="st8" points="366.3,402.7 393.6,386.8 421.2,402.7 393.8,418.6 	"/>
</g>
<g>
	<polygon class="st6" points="253,378.3 252.9,410.4 225,394.3 225.1,362.2 	"/>
	<polygon class="st7" points="253.1,378.6 280,362.9 279.9,394 253,409.7 	"/>
	<polygon class="st8" points="225.7,362.5 253.1,346.6 280.7,362.5 253.3,378.4 	"/>
</g>
<g>
	<polygon class="st6" points="288,398.5 287.9,430.6 260,414.5 260.1,382.4 	"/>
	<polygon class="st7" points="288.1,398.8 315,383.1 314.9,414.3 288,429.9 	"/>
	<polygon class="st8" points="260.8,382.8 288.1,366.9 315.7,382.8 288.3,398.6 	"/>
</g>
<g>
	<polygon class="st6" points="323,418.8 322.9,450.8 295,434.7 295.1,402.6 	"/>
	<polygon class="st7" points="323.1,419 350,403.4 349.9,434.5 323,450.1 	"/>
	<polygon class="st8" points="295.8,403 323.1,387.1 350.7,403 323.3,418.9 	"/>
</g>
<g>
	<polygon class="st6" points="359,439 358.9,471 331,454.9 331.1,422.9 	"/>
	<polygon class="st7" points="358.1,439.2 385,423.6 384.9,454.7 358,470.3 	"/>
	<polygon class="st8" points="330.8,423.2 358.1,407.3 385.7,423.2 358.3,439.1 	"/>
</g>
<g>
	<polygon class="st6" points="218,398.8 217.9,430.9 190,414.8 190.1,382.7 	"/>
	<polygon class="st7" points="218.1,399.1 245,383.4 244.9,414.5 218,430.2 	"/>
	<polygon class="st8" points="190.2,383 217.6,367.1 245.2,383 217.8,398.9 	"/>
</g>
<g>
	<polygon class="st6" points="253,419 252.9,451.1 225,435 225.1,402.9 	"/>
	<polygon class="st7" points="253.1,419.3 280,403.6 279.9,434.8 253,450.4 	"/>
	<polygon class="st8" points="225.2,403.2 252.6,387.3 280.2,403.2 252.8,419.1 	"/>
</g>
<g>
	<polygon class="st6" points="288,439.3 287.9,471.3 260,455.2 260.1,423.1 	"/>
	<polygon class="st7" points="288.1,439.5 315,423.9 314.9,455 288,470.6 	"/>
	<polygon class="st8" points="260.3,423.5 287.6,407.6 315.2,423.5 287.8,439.4 	"/>
</g>
<g>
	<polygon class="st6" points="323,459.5 322.9,491.5 295,475.4 295.1,443.4 	"/>
	<polygon class="st7" points="323.1,459.7 350,444.1 349.9,475.2 323,490.8 	"/>
	<polygon class="st8" points="295.3,443.7 322.6,427.8 350.2,443.7 322.8,459.6 	"/>
</g>
<g>
	<polygon class="st6" points="324,299.1 323.9,331.2 296,315.1 296.1,283 	"/>
	<polygon class="st7" points="324.1,299.4 351,283.7 350.9,314.9 324,330.5 	"/>
	<polygon class="st8" points="296.7,283.3 324.1,267.4 351.6,283.4 324.3,299.2 	"/>
</g>
<g>
	<polygon class="st6" points="359,319.4 358.9,351.4 331,335.3 331.1,303.2 	"/>
	<polygon class="st7" points="359.1,319.6 386,304 385.9,335.1 359,350.7 	"/>
	<polygon class="st8" points="331.8,303.6 359.1,287.7 386.7,303.6 359.3,319.5 	"/>
</g>
<g>
	<polygon class="st6" points="394,339.6 393.9,371.6 366,355.5 366.1,323.5 	"/>
	<polygon class="st7" points="394.1,339.8 421,324.2 420.9,355.3 394,370.9 	"/>
	<polygon class="st8" points="366.8,323.8 394.1,307.9 421.7,323.8 394.3,339.7 	"/>
</g>
<g>
	<polygon class="st6" points="430,359.8 429.9,391.9 402,375.7 402.1,343.7 	"/>
	<polygon class="st7" points="429.1,360 456,344.4 455.9,375.5 429,391.1 	"/>
	<polygon class="st8" points="401.8,344 429.1,328.1 456.7,344 429.3,359.9 	"/>
</g>
<g>
	<polygon class="st6" points="289,319.6 288.9,351.7 261,335.6 261.1,303.5 	"/>
	<polygon class="st7" points="289.1,319.9 316,304.2 315.9,335.4 289,351 	"/>
	<polygon class="st8" points="261.2,303.8 288.6,287.9 316.1,303.8 288.8,319.8 	"/>
</g>
<g>
	<polygon class="st6" points="324,339.9 323.9,371.9 296,355.8 296.1,323.7 	"/>
	<polygon class="st7" points="324.1,340.1 351,324.5 350.9,355.6 324,371.2 	"/>
	<polygon class="st8" points="296.2,324 323.6,308.1 351.2,324.1 323.8,340 	"/>
</g>
<g>
	<polygon class="st6" points="359,360.1 358.9,392.1 331,376 331.1,344 	"/>
	<polygon class="st7" points="359.1,360.3 386,344.7 385.9,375.8 359,391.4 	"/>
	<polygon class="st8" points="331.3,344.3 358.6,328.4 386.2,344.3 358.8,360.2 	"/>
</g>
<g>
	<polygon class="st6" points="394,380.3 393.9,412.3 366,396.2 366.1,364.2 	"/>
	<polygon class="st7" points="394.1,380.5 421,364.9 420.9,396 394,411.6 	"/>
	<polygon class="st8" points="366.3,364.5 393.6,348.6 421.2,364.5 393.8,380.4 	"/>
</g>
<g>
	<polygon class="st6" points="253,340.1 252.9,372.2 225,356.1 225.1,324 	"/>
	<polygon class="st7" points="253.1,340.4 280,324.7 279.9,355.9 253,371.5 	"/>
	<polygon class="st8" points="225.7,324.3 253.1,308.4 280.7,324.3 253.3,340.2 	"/>
</g>
<g>
	<polygon class="st6" points="288,360.4 287.9,392.4 260,376.3 260.1,344.2 	"/>
	<polygon class="st7" points="288.1,360.6 315,344.9 314.9,376.1 288,391.7 	"/>
	<polygon class="st8" points="260.8,344.5 288.1,328.6 315.7,344.5 288.3,360.5 	"/>
</g>
<g>
	<polygon class="st6" points="323,380.6 322.9,412.6 295,396.5 295.1,364.5 	"/>
	<polygon class="st7" points="323.1,380.8 350,365.2 349.9,396.3 323,411.9 	"/>
	<polygon class="st8" points="295.8,364.8 323.1,348.9 350.7,364.8 323.3,380.7 	"/>
</g>
<g>
	<polygon class="st6" points="359,400.8 358.9,432.8 331,416.7 331.1,384.7 	"/>
	<polygon class="st7" points="358.1,401 385,385.4 384.9,416.5 358,432.1 	"/>
	<polygon class="st8" points="330.8,385 358.1,369.1 385.7,385 358.3,400.9 	"/>
</g>
<g>
	<polygon class="st6" points="218,360.6 217.9,392.7 190,376.6 190.1,344.5 	"/>
	<polygon class="st7" points="218.1,360.9 245,345.2 244.9,376.4 218,392 	"/>
	<polygon class="st8" points="190.2,344.8 217.6,328.9 245.2,344.8 217.8,360.7 	"/>
</g>
<g>
	<polygon class="st6" points="253,380.9 252.9,412.9 225,396.8 225.1,364.7 	"/>
	<polygon class="st7" points="253.1,381.1 280,365.4 279.9,396.6 253,412.2 	"/>
	<polygon class="st8" points="225.2,365 252.6,349.1 280.2,365 252.8,381 	"/>
</g>
<g>
	<polygon class="st6" points="288,401.1 287.9,433.1 260,417 260.1,385 	"/>
	<polygon class="st7" points="288.1,401.3 315,385.6 314.9,416.8 288,432.4 	"/>
	<polygon class="st8" points="260.3,385.3 287.6,369.4 315.2,385.3 287.8,401.2 	"/>
</g>
<g>
	<polygon class="st6" points="323,421.3 322.9,453.3 295,437.2 295.1,405.2 	"/>
	<polygon class="st7" points="323.1,421.5 350,405.9 349.9,437 323,452.6 	"/>
	<polygon class="st8" points="295.3,405.5 322.6,389.6 350.2,405.5 322.8,421.4 	"/>
</g>
<g>
	<polygon class="st6" points="324,261 323.9,293 296,276.9 296.1,244.8 	"/>
	<polygon class="st7" points="324.1,261.2 351,245.5 350.9,276.7 324,292.3 	"/>
	<polygon class="st8" points="296.7,245.1 324.1,229.2 351.6,245.1 324.3,261 	"/>
</g>
<g>
	<polygon class="st6" points="359,281.2 358.9,313.2 331,297.1 331.1,265 	"/>
	<polygon class="st7" points="359.1,281.4 386,265.8 385.9,296.9 359,312.5 	"/>
	<polygon class="st8" points="331.8,265.4 359.1,249.5 386.7,265.4 359.3,281.3 	"/>
</g>
<g>
	<polygon class="st6" points="394,301.4 393.9,333.4 366,317.3 366.1,285.3 	"/>
	<polygon class="st7" points="394.1,301.6 421,286 420.9,317.1 394,332.7 	"/>
	<polygon class="st8" points="366.8,285.6 394.1,269.7 421.7,285.6 394.3,301.5 	"/>
</g>
<g>
	<polygon class="st6" points="430,321.6 429.9,353.6 402,337.5 402.1,305.5 	"/>
	<polygon class="st7" points="429.1,321.8 456,306.2 455.9,337.3 429,353 	"/>
	<polygon class="st8" points="401.8,305.8 429.1,289.9 456.7,305.8 429.3,321.7 	"/>
</g>
<g>
	<polygon class="st6" points="289,281.4 288.9,313.5 261,297.4 261.1,265.3 	"/>
	<polygon class="st7" points="289.1,281.7 316,266 315.9,297.2 289,312.8 	"/>
	<polygon class="st8" points="261.2,265.6 288.6,249.7 316.1,265.6 288.8,281.5 	"/>
</g>
<g>
	<polygon class="st6" points="324,301.7 323.9,333.7 296,317.6 296.1,285.5 	"/>
	<polygon class="st7" points="324.1,301.9 351,286.2 350.9,317.4 324,333 	"/>
	<polygon class="st8" points="296.2,285.9 323.6,270 351.2,285.9 323.8,301.8 	"/>
</g>
<g>
	<polygon class="st6" points="359,321.9 358.9,353.9 331,337.8 331.1,305.8 	"/>
	<polygon class="st7" points="359.1,322.1 386,306.5 385.9,337.6 359,353.2 	"/>
	<polygon class="st8" points="331.3,306.1 358.6,290.2 386.2,306.1 358.8,322 	"/>
</g>
<g>
	<polygon class="st6" points="394,342.1 393.9,374.1 366,358 366.1,326 	"/>
	<polygon class="st7" points="394.1,342.3 421,326.7 420.9,357.8 394,373.4 	"/>
	<polygon class="st8" points="366.3,326.3 393.6,310.4 421.2,326.3 393.8,342.2 	"/>
</g>
<g>
	<polygon class="st6" points="253,301.9 252.9,334 225,317.9 225.1,285.8 	"/>
	<polygon class="st7" points="253.1,302.2 280,286.5 279.9,317.6 253,333.3 	"/>
	<polygon class="st8" points="225.7,286.1 253.1,270.2 280.7,286.1 253.3,302 	"/>
</g>
<g>
	<polygon class="st6" points="288,322.1 287.9,354.2 260,338.1 260.1,306 	"/>
	<polygon class="st7" points="288.1,322.4 315,306.8 314.9,337.9 288,353.5 	"/>
	<polygon class="st8" points="260.8,306.4 288.1,290.5 315.7,306.4 288.3,322.2 	"/>
</g>
<g>
	<polygon class="st6" points="323,342.4 322.9,374.4 295,358.3 295.1,326.2 	"/>
	<polygon class="st7" points="323.1,342.6 350,327 349.9,358.1 323,373.7 	"/>
	<polygon class="st8" points="295.8,326.6 323.1,310.7 350.7,326.6 323.3,342.5 	"/>
</g>
<g>
	<polygon class="st6" points="359,362.6 358.9,394.6 331,378.5 331.1,346.5 	"/>
	<polygon class="st7" points="358.1,362.8 385,347.2 384.9,378.3 358,393.9 	"/>
	<polygon class="st8" points="330.8,346.8 358.1,330.9 385.7,346.8 358.3,362.7 	"/>
</g>
<g>
	<polygon class="st6" points="218,322.4 217.9,354.5 190,338.4 190.1,306.3 	"/>
	<polygon class="st7" points="218.1,322.7 245,307 244.9,338.1 218,353.8 	"/>
	<polygon class="st8" points="190.2,306.6 217.6,290.7 245.2,306.6 217.8,322.5 	"/>
</g>
<g>
	<polygon class="st6" points="253,342.6 252.9,374.7 225,358.6 225.1,326.5 	"/>
	<polygon class="st7" points="253.1,342.9 280,327.2 279.9,358.4 253,374 	"/>
	<polygon class="st8" points="225.2,326.8 252.6,310.9 280.2,326.9 252.8,342.8 	"/>
</g>
<g>
	<polygon class="st6" points="288,362.9 287.9,394.9 260,378.8 260.1,346.8 	"/>
	<polygon class="st7" points="288.1,363.1 315,347.5 314.9,378.6 288,394.2 	"/>
	<polygon class="st8" points="260.3,347.1 287.6,331.1 315.2,347.1 287.8,363 	"/>
</g>
<g>
	<polygon class="st6" points="323,383.1 322.9,415.1 295,399 295.1,367 	"/>
	<polygon class="st7" points="323.1,383.3 350,367.7 349.9,398.8 323,414.4 	"/>
	<polygon class="st8" points="295.3,367.3 322.6,351.4 350.2,367.3 322.8,383.2 	"/>
</g>
<g>
	<polygon class="st6" points="324,223.2 323.9,255.2 296,239.1 296.1,207.1 	"/>
	<polygon class="st7" points="324.1,223.4 351,207.8 350.9,238.9 324,254.5 	"/>
	<polygon class="st8" points="296.7,207.4 324.1,191.5 351.6,207.4 324.3,223.3 	"/>
</g>
<g>
	<polygon class="st6" points="359,243.4 358.9,275.5 331,259.3 331.1,227.3 	"/>
	<polygon class="st7" points="359.1,243.6 386,228 385.9,259.1 359,274.8 	"/>
	<polygon class="st8" points="331.8,227.6 359.1,211.7 386.7,227.6 359.3,243.5 	"/>
</g>
<g>
	<polygon class="st6" points="394,263.6 393.9,295.7 366,279.6 366.1,247.5 	"/>
	<polygon class="st7" points="394.1,263.8 421,248.2 420.9,279.3 394,295 	"/>
	<polygon class="st8" points="366.8,247.8 394.1,231.9 421.7,247.8 394.3,263.7 	"/>
</g>
<g>
	<polygon class="st6" points="430,283.8 429.9,315.9 402,299.8 402.1,267.7 	"/>
	<polygon class="st7" points="429.1,284.1 456,268.4 455.9,299.5 429,315.2 	"/>
	<polygon class="st8" points="401.8,268 429.1,252.1 456.7,268 429.3,283.9 	"/>
</g>
<g>
	<polygon class="st6" points="289,243.7 288.9,275.7 261,259.6 261.1,227.6 	"/>
	<polygon class="st7" points="289.1,243.9 316,228.3 315.9,259.4 289,275 	"/>
	<polygon class="st8" points="261.2,227.9 288.6,212 316.1,227.9 288.8,243.8 	"/>
</g>
<g>
	<polygon class="st6" points="324,263.9 323.9,295.9 296,279.8 296.1,247.8 	"/>
	<polygon class="st7" points="324.1,264.1 351,248.5 350.9,279.6 324,295.2 	"/>
	<polygon class="st8" points="296.2,248.1 323.6,232.2 351.2,248.1 323.8,264 	"/>
</g>
<g>
	<polygon class="st6" points="359,284.1 358.9,316.2 331,300 331.1,268 	"/>
	<polygon class="st7" points="359.1,284.3 386,268.7 385.9,299.8 359,315.5 	"/>
	<polygon class="st8" points="331.3,268.3 358.6,252.4 386.2,268.3 358.8,284.2 	"/>
</g>
<g>
	<polygon class="st6" points="394,304.3 393.9,336.4 366,320.3 366.1,288.2 	"/>
	<polygon class="st7" points="394.1,304.6 421,288.9 420.9,320 394,335.7 	"/>
	<polygon class="st8" points="366.3,288.5 393.6,272.6 421.2,288.5 393.8,304.4 	"/>
</g>
<g>
	<polygon class="st6" points="253,264.2 252.9,296.2 225,280.1 225.1,248.1 	"/>
	<polygon class="st7" points="253.1,264.4 280,248.8 279.9,279.9 253,295.5 	"/>
	<polygon class="st8" points="225.7,248.4 253.1,232.5 280.7,248.4 253.3,264.3 	"/>
</g>
<g>
	<polygon class="st6" points="288,284.4 287.9,316.4 260,300.3 260.1,268.3 	"/>
	<polygon class="st7" points="288.1,284.6 315,269 314.9,300.1 288,315.7 	"/>
	<polygon class="st8" points="260.8,268.6 288.1,252.7 315.7,268.6 288.3,284.5 	"/>
</g>
<g>
	<polygon class="st6" points="323,304.6 322.9,336.7 295,320.5 295.1,288.5 	"/>
	<polygon class="st7" points="323.1,304.8 350,289.2 349.9,320.3 323,336 	"/>
	<polygon class="st8" points="295.8,288.8 323.1,272.9 350.7,288.8 323.3,304.7 	"/>
</g>
<g>
	<polygon class="st6" points="359,324.8 358.9,356.9 331,340.8 331.1,308.7 	"/>
	<polygon class="st7" points="358.1,325 385,309.4 384.9,340.5 358,356.2 	"/>
	<polygon class="st8" points="330.8,309 358.1,293.1 385.7,309 358.3,324.9 	"/>
</g>
<g>
	<polygon class="st6" points="218,284.7 217.9,316.7 190,300.6 190.1,268.6 	"/>
	<polygon class="st7" points="218.1,284.9 245,269.3 244.9,300.4 218,316 	"/>
	<polygon class="st8" points="190.2,268.9 217.6,253 245.2,268.9 217.8,284.8 	"/>
</g>
<g>
	<polygon class="st6" points="253,304.9 252.9,336.9 225,320.8 225.1,288.8 	"/>
	<polygon class="st7" points="253.1,305.1 280,289.5 279.9,320.6 253,336.2 	"/>
	<polygon class="st8" points="225.2,289.1 252.6,273.2 280.2,289.1 252.8,305 	"/>
</g>
<g>
	<polygon class="st6" points="288,325.1 287.9,357.2 260,341 260.1,309 	"/>
	<polygon class="st7" points="288.1,325.3 315,309.7 314.9,340.8 288,356.5 	"/>
	<polygon class="st8" points="260.3,309.3 287.6,293.4 315.2,309.3 287.8,325.2 	"/>
</g>
<g>
	<polygon class="st6" points="323,345.3 322.9,377.4 295,361.3 295.1,329.2 	"/>
	<polygon class="st7" points="323.1,345.5 350,329.9 349.9,361 323,376.7 	"/>
	<polygon class="st8" points="295.3,329.5 322.6,313.6 350.2,329.5 322.8,345.4 	"/>
</g>
<rect x="56" y="62" class="st9" width="1088" height="68"/>
<rect x="56" y="770" class="st9" width="544" height="68"/>
<rect x="600" y="770" class="st9" width="544" height="68"/>
<polygon class="st2" points="719.2,523 883.4,427.6 1040.1,518 875.9,613.4 "/>
<g>
	<polygon class="st10" points="876,587.9 876,603.8 719,513.1 719,497.3 	"/>
	<polygon class="st11" points="876,587.8 1040,492.5 1039.9,508.3 876,603.6 	"/>
	<polygon class="st12" points="719.2,497.4 883.4,402 1040.1,492.4 875.9,587.8 	"/>
</g>
<polygon points="929.2,509.9 892.5,531.2 826.6,492.8 899.5,449.6 934.6,469.9 897.8,491.2 "/>
<g>
	<polygon class="st6" points="853,476.3 852.9,508.4 825,492.3 825.1,460.2 	"/>
	<polygon class="st7" points="853.1,476.6 880,460.9 879.9,492 853,507.7 	"/>
	<polygon class="st8" points="825.4,460.5 852.7,444.6 880.3,460.5 852.9,476.4 	"/>
</g>
<g>
	<polygon class="st6" points="853,445.1 852.9,477.2 825,461.1 825.1,429 	"/>
	<polygon class="st7" points="853.1,445.4 880,429.7 879.9,460.9 853,476.5 	"/>
	<polygon class="st8" points="825.4,429.3 852.7,413.4 880.3,429.3 852.9,445.2 	"/>
</g>
<g>
	<polygon class="st6" points="881,492.6 880.9,524.6 853,508.5 853.1,476.5 	"/>
	<polygon class="st7" points="881.1,492.8 908,477.2 907.9,508.3 881,523.9 	"/>
	<polygon class="st8" points="853,476.8 880.4,460.9 908,476.8 880.6,492.7 	"/>
</g>
<rect x="59.2" y="657.8" class="st13" width="537.1" height="94.5"/>
<text transform="matrix(1 0 0 1 188.5186 677.0781)"><tspan x="0" y="0" class="st14 st15">Total Number of shares  </tspan><tspan x="69.2" y="30.8" class="st14 st15">in Acme Co.</tspan></text>
<g>
	<rect x="58.5" y="795.1" class="st13" width="537.1" height="19.3"/>
	<text transform="matrix(1 0 0 1 217.9816 809.7278)" class="st16 st17">100 shares outstanding</text>
</g>
<rect x="603.4" y="657.8" class="st13" width="537.1" height="94.5"/>
<text transform="matrix(1 0 0 1 757.3715 677.0781)"><tspan x="0" y="0" class="st14 st15">Shares of Acme Co. </tspan><tspan x="63.2" y="30.8" class="st14 st15">you own</tspan></text>
<rect x="602.6" y="795.1" class="st13" width="537.1" height="19.3"/>
<text transform="matrix(1 0 0 1 661.1129 809.7278)" class="st16 st17">3 shares owned, you own 3% of the company</text>
<rect x="118.5" y="88" class="st13" width="537.1" height="19.3"/>
<text transform="matrix(1 0 0 1 118.4669 102.5908)" class="st16 st17">Stocks Example</text>
<g>
	<g>
		<polygon class="st6" points="324,232.7 323.9,264.8 296,248.7 296.1,216.6 		"/>
		<polygon class="st7" points="324.1,233 351,217.3 350.9,248.5 324,264.1 		"/>
		<polygon class="st8" points="296.2,216.9 323.6,201 351.2,216.9 323.8,232.8 		"/>
	</g>
	<g>
		<polygon class="st6" points="359,253 358.9,285 331,268.9 331.1,236.8 		"/>
		<polygon class="st7" points="359.1,253.2 386,237.5 385.9,268.7 359,284.3 		"/>
		<polygon class="st8" points="331.3,237.2 358.6,221.3 386.2,237.2 358.8,253.1 		"/>
	</g>
	<g>
		<polygon class="st6" points="288,253.2 287.9,285.3 260,269.2 260.1,237.1 		"/>
		<polygon class="st7" points="288.1,253.5 315,237.8 314.9,269 288,284.6 		"/>
		<polygon class="st8" points="260.8,237.4 288.1,221.5 315.7,237.4 288.3,253.3 		"/>
	</g>
	<g>
		<polygon class="st6" points="323,273.5 322.9,305.5 295,289.4 295.1,257.3 		"/>
		<polygon class="st7" points="323.1,273.7 350,258 349.9,289.2 323,304.8 		"/>
		<polygon class="st8" points="295.8,257.6 323.1,241.7 350.7,257.7 323.3,273.6 		"/>
	</g>
</g>
</svg>
